<svg width="518" height="488" viewBox="0 0 518 488" fill="none" xmlns="http://www.w3.org/2000/svg">
<circle cx="259" cy="244" r="171.679" stroke="#E0CDE5" stroke-width="3"/>
<circle cx="259" cy="244" r="233.5" stroke="#E0CDE5"/>
<circle cx="259" cy="244" r="160.515" stroke="#E0CDE5"/>
<path d="M265.851 177.933H253.32V155.339C253.32 154.923 253.32 154.162 253.32 153.058C253.32 151.933 253.33 150.693 253.351 149.339C253.393 147.985 253.445 146.766 253.507 145.683C252.966 146.329 252.455 146.881 251.976 147.339C251.518 147.798 251.07 148.225 250.632 148.62L245.445 152.902L239.039 145.027L254.726 132.245H265.851V177.933ZM191.398 221.933H189.789V199.089H202.289V200.542H191.398V210.277H201.695V211.714H191.398V221.933ZM219.57 213.417C219.57 214.73 219.408 215.928 219.085 217.011C218.763 218.084 218.283 219.011 217.648 219.792C217.013 220.574 216.221 221.178 215.273 221.605C214.335 222.032 213.242 222.245 211.992 222.245C210.804 222.245 209.747 222.037 208.82 221.62C207.893 221.193 207.106 220.589 206.46 219.808C205.825 219.027 205.341 218.1 205.007 217.027C204.674 215.943 204.507 214.74 204.507 213.417C204.507 211.594 204.809 210.027 205.414 208.714C206.028 207.391 206.903 206.381 208.039 205.683C209.184 204.975 210.554 204.62 212.148 204.62C213.794 204.62 215.164 204.995 216.257 205.745C217.362 206.485 218.19 207.516 218.742 208.839C219.294 210.162 219.57 211.688 219.57 213.417ZM206.132 213.417C206.132 214.907 206.346 216.209 206.773 217.324C207.2 218.438 207.846 219.308 208.71 219.933C209.585 220.558 210.69 220.87 212.023 220.87C213.388 220.87 214.507 220.558 215.382 219.933C216.257 219.308 216.903 218.433 217.32 217.308C217.737 216.183 217.945 214.886 217.945 213.417C217.945 211.99 217.747 210.719 217.351 209.605C216.955 208.49 216.33 207.615 215.476 206.98C214.622 206.334 213.507 206.011 212.132 206.011C210.164 206.011 208.669 206.667 207.648 207.98C206.638 209.292 206.132 211.105 206.132 213.417ZM228.851 220.886C229.341 220.886 229.794 220.85 230.21 220.777C230.638 220.704 231.013 220.61 231.335 220.495V221.808C231.002 221.923 230.612 222.022 230.164 222.105C229.716 222.199 229.221 222.245 228.679 222.245C227.721 222.245 226.924 222.068 226.289 221.714C225.653 221.35 225.174 220.803 224.851 220.074C224.528 219.334 224.367 218.397 224.367 217.261V206.261H221.835V205.324L224.351 204.839L224.898 200.839H225.945V204.949H231.242V206.261H225.945V217.167C225.945 218.386 226.169 219.313 226.617 219.949C227.075 220.574 227.82 220.886 228.851 220.886ZM249.07 213.417C249.07 214.73 248.908 215.928 248.585 217.011C248.263 218.084 247.783 219.011 247.148 219.792C246.513 220.574 245.721 221.178 244.773 221.605C243.835 222.032 242.742 222.245 241.492 222.245C240.304 222.245 239.247 222.037 238.32 221.62C237.393 221.193 236.606 220.589 235.96 219.808C235.325 219.027 234.841 218.1 234.507 217.027C234.174 215.943 234.007 214.74 234.007 213.417C234.007 211.594 234.309 210.027 234.914 208.714C235.528 207.391 236.403 206.381 237.539 205.683C238.684 204.975 240.054 204.62 241.648 204.62C243.294 204.62 244.664 204.995 245.757 205.745C246.862 206.485 247.69 207.516 248.242 208.839C248.794 210.162 249.07 211.688 249.07 213.417ZM235.632 213.417C235.632 214.907 235.846 216.209 236.273 217.324C236.7 218.438 237.346 219.308 238.21 219.933C239.085 220.558 240.19 220.87 241.523 220.87C242.888 220.87 244.007 220.558 244.882 219.933C245.757 219.308 246.403 218.433 246.82 217.308C247.237 216.183 247.445 214.886 247.445 213.417C247.445 211.99 247.247 210.719 246.851 209.605C246.455 208.49 245.83 207.615 244.976 206.98C244.122 206.334 243.007 206.011 241.632 206.011C239.664 206.011 238.169 206.667 237.148 207.98C236.138 209.292 235.632 211.105 235.632 213.417ZM255.367 221.933H253.773V197.62H255.367V221.933ZM262.585 204.949V221.933H261.007V204.949H262.585ZM261.82 198.667C262.216 198.667 262.507 198.787 262.695 199.027C262.882 199.256 262.976 199.568 262.976 199.964C262.976 200.36 262.882 200.673 262.695 200.902C262.507 201.131 262.216 201.245 261.82 201.245C261.445 201.245 261.164 201.131 260.976 200.902C260.789 200.673 260.695 200.36 260.695 199.964C260.695 199.568 260.789 199.256 260.976 199.027C261.164 198.787 261.445 198.667 261.82 198.667ZM275.07 222.245C273.382 222.245 271.955 221.897 270.789 221.199C269.632 220.49 268.757 219.485 268.164 218.183C267.58 216.87 267.289 215.318 267.289 213.527C267.289 211.662 267.627 210.068 268.304 208.745C268.981 207.412 269.934 206.391 271.164 205.683C272.393 204.975 273.835 204.62 275.492 204.62C276.304 204.62 277.059 204.693 277.757 204.839C278.455 204.985 279.085 205.188 279.648 205.449L279.226 206.839C278.643 206.579 278.023 206.381 277.367 206.245C276.71 206.11 276.08 206.042 275.476 206.042C274.08 206.042 272.893 206.35 271.914 206.964C270.945 207.568 270.2 208.433 269.679 209.558C269.169 210.673 268.914 211.99 268.914 213.511C268.914 214.938 269.132 216.204 269.57 217.308C270.007 218.402 270.679 219.266 271.585 219.902C272.492 220.527 273.653 220.839 275.07 220.839C275.893 220.839 276.674 220.756 277.414 220.589C278.164 220.423 278.846 220.209 279.46 219.949V221.386C278.908 221.636 278.268 221.839 277.539 221.995C276.82 222.162 275.997 222.245 275.07 222.245ZM289.914 204.62C291.362 204.62 292.565 204.959 293.523 205.636C294.492 206.313 295.21 207.24 295.679 208.417C296.158 209.594 296.398 210.943 296.398 212.464V213.605H284.132C284.132 215.938 284.669 217.73 285.742 218.98C286.825 220.23 288.372 220.855 290.382 220.855C291.434 220.855 292.346 220.772 293.117 220.605C293.898 220.428 294.763 220.131 295.71 219.714V221.167C294.877 221.542 294.044 221.813 293.21 221.98C292.377 222.157 291.419 222.245 290.335 222.245C288.617 222.245 287.174 221.891 286.007 221.183C284.851 220.464 283.976 219.454 283.382 218.152C282.799 216.85 282.507 215.329 282.507 213.589C282.507 211.891 282.789 210.365 283.351 209.011C283.924 207.657 284.757 206.589 285.851 205.808C286.955 205.016 288.309 204.62 289.914 204.62ZM289.898 205.98C288.273 205.98 286.955 206.522 285.945 207.605C284.945 208.678 284.356 210.23 284.179 212.261H294.757C294.757 211.022 294.58 209.928 294.226 208.98C293.872 208.032 293.335 207.298 292.617 206.777C291.908 206.245 291.002 205.98 289.898 205.98ZM308.554 204.62C310.46 204.62 311.924 205.12 312.945 206.12C313.966 207.12 314.476 208.688 314.476 210.824V221.933H312.914V210.917C312.914 209.23 312.528 207.99 311.757 207.199C310.987 206.407 309.867 206.011 308.398 206.011C306.533 206.011 305.106 206.558 304.117 207.652C303.138 208.735 302.648 210.376 302.648 212.574V221.933H301.07V204.949H302.351L302.585 208.042H302.679C302.981 207.407 303.393 206.834 303.914 206.324C304.445 205.803 305.096 205.391 305.867 205.089C306.638 204.777 307.533 204.62 308.554 204.62ZM330.601 217.48C330.601 218.49 330.346 219.355 329.835 220.074C329.335 220.782 328.601 221.324 327.632 221.699C326.664 222.063 325.471 222.245 324.054 222.245C322.877 222.245 321.825 222.141 320.898 221.933C319.971 221.725 319.195 221.469 318.57 221.167V219.605C319.351 219.99 320.216 220.303 321.164 220.542C322.112 220.782 323.085 220.902 324.085 220.902C325.835 220.902 327.096 220.605 327.867 220.011C328.638 219.417 329.023 218.605 329.023 217.574C329.023 216.897 328.83 216.339 328.445 215.902C328.07 215.454 327.528 215.068 326.82 214.745C326.112 214.423 325.257 214.094 324.257 213.761C323.216 213.407 322.289 213.058 321.476 212.714C320.674 212.36 320.044 211.897 319.585 211.324C319.127 210.74 318.898 209.949 318.898 208.949C318.898 207.584 319.445 206.522 320.539 205.761C321.632 205.001 323.101 204.62 324.945 204.62C325.966 204.62 326.914 204.719 327.789 204.917C328.674 205.105 329.476 205.35 330.195 205.652L329.632 206.995C328.987 206.693 328.242 206.449 327.398 206.261C326.554 206.074 325.71 205.98 324.867 205.98C323.481 205.98 322.398 206.225 321.617 206.714C320.835 207.204 320.445 207.923 320.445 208.87C320.445 209.6 320.632 210.173 321.007 210.589C321.382 210.995 321.919 211.339 322.617 211.62C323.315 211.891 324.143 212.193 325.101 212.527C326.091 212.87 327.002 213.23 327.835 213.605C328.679 213.98 329.351 214.464 329.851 215.058C330.351 215.652 330.601 216.459 330.601 217.48ZM200.257 241.62V249.558C200.257 250.016 200.247 250.443 200.226 250.839C200.216 251.235 200.195 251.636 200.164 252.042H200.273C200.554 251.397 200.955 250.818 201.476 250.308C202.007 249.798 202.658 249.391 203.429 249.089C204.21 248.787 205.112 248.636 206.132 248.636C207.424 248.636 208.507 248.86 209.382 249.308C210.268 249.745 210.94 250.417 211.398 251.324C211.856 252.23 212.085 253.397 212.085 254.824V265.933H210.523V254.917C210.523 253.23 210.138 251.99 209.367 251.199C208.596 250.407 207.476 250.011 206.007 250.011C204.757 250.011 203.705 250.256 202.851 250.745C201.997 251.225 201.351 251.954 200.914 252.933C200.476 253.902 200.257 255.115 200.257 256.574V265.933H198.679V241.62H200.257ZM221.289 265.933L214.773 248.949H216.445L220.804 260.527C221.075 261.225 221.315 261.897 221.523 262.542C221.742 263.178 221.924 263.756 222.07 264.277H222.148C222.315 263.756 222.502 263.173 222.71 262.527C222.929 261.881 223.169 261.214 223.429 260.527L227.789 248.949H229.476L222.945 265.933H221.289ZM238.742 248.62C240.19 248.62 241.393 248.959 242.351 249.636C243.32 250.313 244.039 251.24 244.507 252.417C244.987 253.594 245.226 254.943 245.226 256.464V257.605H232.96C232.96 259.938 233.497 261.73 234.57 262.98C235.653 264.23 237.2 264.855 239.21 264.855C240.263 264.855 241.174 264.772 241.945 264.605C242.726 264.428 243.591 264.131 244.539 263.714V265.167C243.705 265.542 242.872 265.813 242.039 265.98C241.205 266.157 240.247 266.245 239.164 266.245C237.445 266.245 236.002 265.891 234.835 265.183C233.679 264.464 232.804 263.454 232.21 262.152C231.627 260.85 231.335 259.329 231.335 257.589C231.335 255.891 231.617 254.365 232.179 253.011C232.752 251.657 233.585 250.589 234.679 249.808C235.783 249.016 237.138 248.62 238.742 248.62ZM238.726 249.98C237.101 249.98 235.783 250.522 234.773 251.605C233.773 252.678 233.184 254.23 233.007 256.261H243.585C243.585 255.022 243.408 253.928 243.054 252.98C242.7 252.032 242.164 251.298 241.445 250.777C240.737 250.245 239.83 249.98 238.726 249.98ZM256.664 248.652C257.112 248.652 257.533 248.678 257.929 248.73C258.325 248.782 258.695 248.855 259.039 248.949L258.789 250.402C258.445 250.308 258.096 250.24 257.742 250.199C257.388 250.147 257.007 250.12 256.601 250.12C255.799 250.12 255.08 250.272 254.445 250.574C253.82 250.876 253.289 251.308 252.851 251.87C252.414 252.433 252.08 253.11 251.851 253.902C251.622 254.693 251.507 255.579 251.507 256.558V265.933H249.914V248.949H251.273L251.429 252.152H251.523C251.783 251.495 252.148 250.907 252.617 250.386C253.096 249.855 253.674 249.433 254.351 249.12C255.028 248.808 255.799 248.652 256.664 248.652ZM266.96 264.886C267.45 264.886 267.903 264.85 268.32 264.777C268.747 264.704 269.122 264.61 269.445 264.495V265.808C269.112 265.923 268.721 266.022 268.273 266.105C267.825 266.199 267.33 266.245 266.789 266.245C265.83 266.245 265.033 266.068 264.398 265.714C263.763 265.35 263.283 264.803 262.96 264.074C262.638 263.334 262.476 262.397 262.476 261.261V250.261H259.945V249.324L262.46 248.839L263.007 244.839H264.054V248.949H269.351V250.261H264.054V261.167C264.054 262.386 264.278 263.313 264.726 263.949C265.184 264.574 265.929 264.886 266.96 264.886ZM289.242 265.933H287.695V248.683C287.695 248.068 287.695 247.532 287.695 247.074C287.695 246.605 287.7 246.188 287.71 245.824C287.721 245.449 287.737 245.094 287.757 244.761C287.476 245.042 287.205 245.287 286.945 245.495C286.684 245.704 286.351 245.969 285.945 246.292L282.57 248.855L281.695 247.73L287.914 243.089H289.242V265.933ZM298.882 256.199C298.882 254.49 299.013 252.933 299.273 251.527C299.544 250.11 299.94 248.86 300.46 247.777C300.981 246.683 301.638 245.761 302.429 245.011C303.221 244.261 304.148 243.693 305.21 243.308C306.273 242.923 307.466 242.73 308.789 242.73C309.362 242.73 309.908 242.761 310.429 242.824C310.95 242.886 311.408 242.975 311.804 243.089V244.527C311.419 244.391 310.971 244.287 310.46 244.214C309.95 244.131 309.403 244.089 308.82 244.089C307.028 244.089 305.523 244.506 304.304 245.339C303.085 246.162 302.153 247.397 301.507 249.042C300.872 250.678 300.518 252.709 300.445 255.136H300.554C300.856 254.574 301.278 254.037 301.82 253.527C302.372 253.016 303.054 252.6 303.867 252.277C304.69 251.954 305.658 251.792 306.773 251.792C308.148 251.792 309.33 252.068 310.32 252.62C311.32 253.173 312.085 253.964 312.617 254.995C313.158 256.027 313.429 257.251 313.429 258.667C313.429 260.188 313.148 261.516 312.585 262.652C312.033 263.787 311.231 264.673 310.179 265.308C309.138 265.933 307.882 266.245 306.414 266.245C305.164 266.245 304.07 265.99 303.132 265.48C302.195 264.969 301.408 264.256 300.773 263.339C300.148 262.423 299.674 261.36 299.351 260.152C299.039 258.933 298.882 257.615 298.882 256.199ZM306.398 264.87C308.117 264.87 309.45 264.334 310.398 263.261C311.356 262.178 311.835 260.647 311.835 258.667C311.835 256.959 311.398 255.61 310.523 254.62C309.648 253.62 308.325 253.12 306.554 253.12C305.325 253.12 304.263 253.365 303.367 253.855C302.481 254.344 301.799 254.954 301.32 255.683C300.841 256.402 300.601 257.11 300.601 257.808C300.601 258.464 300.695 259.193 300.882 259.995C301.07 260.798 301.388 261.574 301.835 262.324C302.283 263.063 302.877 263.673 303.617 264.152C304.367 264.631 305.294 264.87 306.398 264.87ZM317.71 264.824C317.71 264.365 317.815 264.016 318.023 263.777C318.231 263.527 318.539 263.402 318.945 263.402C319.393 263.402 319.721 263.527 319.929 263.777C320.138 264.016 320.242 264.365 320.242 264.824C320.242 265.282 320.138 265.636 319.929 265.886C319.721 266.136 319.393 266.261 318.945 266.261C318.539 266.261 318.231 266.136 318.023 265.886C317.815 265.636 317.71 265.282 317.71 264.824ZM220.32 305.48C220.32 306.49 220.065 307.355 219.554 308.074C219.054 308.782 218.32 309.324 217.351 309.699C216.382 310.063 215.19 310.245 213.773 310.245C212.596 310.245 211.544 310.141 210.617 309.933C209.69 309.725 208.914 309.469 208.289 309.167V307.605C209.07 307.99 209.934 308.303 210.882 308.542C211.83 308.782 212.804 308.902 213.804 308.902C215.554 308.902 216.815 308.605 217.585 308.011C218.356 307.417 218.742 306.605 218.742 305.574C218.742 304.897 218.549 304.339 218.164 303.902C217.789 303.454 217.247 303.068 216.539 302.745C215.83 302.423 214.976 302.094 213.976 301.761C212.934 301.407 212.007 301.058 211.195 300.714C210.393 300.36 209.763 299.897 209.304 299.324C208.846 298.74 208.617 297.949 208.617 296.949C208.617 295.584 209.164 294.522 210.257 293.761C211.351 293.001 212.82 292.62 214.664 292.62C215.684 292.62 216.632 292.719 217.507 292.917C218.393 293.105 219.195 293.35 219.914 293.652L219.351 294.995C218.705 294.693 217.96 294.449 217.117 294.261C216.273 294.074 215.429 293.98 214.585 293.98C213.2 293.98 212.117 294.225 211.335 294.714C210.554 295.204 210.164 295.923 210.164 296.87C210.164 297.6 210.351 298.173 210.726 298.589C211.101 298.995 211.638 299.339 212.335 299.62C213.033 299.891 213.862 300.193 214.82 300.527C215.809 300.87 216.721 301.23 217.554 301.605C218.398 301.98 219.07 302.464 219.57 303.058C220.07 303.652 220.32 304.459 220.32 305.48ZM231.039 292.62C232.487 292.62 233.69 292.959 234.648 293.636C235.617 294.313 236.335 295.24 236.804 296.417C237.283 297.594 237.523 298.943 237.523 300.464V301.605H225.257C225.257 303.938 225.794 305.73 226.867 306.98C227.95 308.23 229.497 308.855 231.507 308.855C232.559 308.855 233.471 308.772 234.242 308.605C235.023 308.428 235.888 308.131 236.835 307.714V309.167C236.002 309.542 235.169 309.813 234.335 309.98C233.502 310.157 232.544 310.245 231.46 310.245C229.742 310.245 228.299 309.891 227.132 309.183C225.976 308.464 225.101 307.454 224.507 306.152C223.924 304.85 223.632 303.329 223.632 301.589C223.632 299.891 223.914 298.365 224.476 297.011C225.049 295.657 225.882 294.589 226.976 293.808C228.08 293.016 229.434 292.62 231.039 292.62ZM231.023 293.98C229.398 293.98 228.08 294.522 227.07 295.605C226.07 296.678 225.481 298.23 225.304 300.261H235.882C235.882 299.022 235.705 297.928 235.351 296.98C234.997 296.032 234.46 295.298 233.742 294.777C233.033 294.245 232.127 293.98 231.023 293.98ZM243.773 285.62V297.886C243.773 298.647 243.763 299.423 243.742 300.214C243.731 300.995 243.716 301.777 243.695 302.558H243.726C244.028 302.204 244.341 301.834 244.664 301.449C244.997 301.053 245.325 300.673 245.648 300.308L252.367 292.949H254.273L247.57 300.23L254.867 309.933H252.976L246.492 301.277L243.773 304.136V309.933H242.195V285.62H243.773ZM270.898 292.949V309.933H269.617L269.382 306.87H269.289C268.997 307.495 268.585 308.063 268.054 308.574C267.523 309.084 266.872 309.49 266.101 309.792C265.33 310.094 264.434 310.245 263.414 310.245C262.112 310.245 261.018 310.022 260.132 309.574C259.257 309.115 258.596 308.428 258.148 307.511C257.7 306.594 257.476 305.449 257.476 304.074V292.949H259.054V303.917C259.054 305.615 259.434 306.865 260.195 307.667C260.966 308.469 262.091 308.87 263.57 308.87C264.82 308.87 265.867 308.631 266.71 308.152C267.565 307.673 268.21 306.949 268.648 305.98C269.096 305.001 269.32 303.782 269.32 302.324V292.949H270.898ZM284.085 292.62C285.992 292.62 287.455 293.12 288.476 294.12C289.497 295.12 290.007 296.688 290.007 298.824V309.933H288.445V298.917C288.445 297.23 288.059 295.99 287.289 295.199C286.518 294.407 285.398 294.011 283.929 294.011C282.065 294.011 280.638 294.558 279.648 295.652C278.669 296.735 278.179 298.376 278.179 300.574V309.933H276.601V292.949H277.882L278.117 296.042H278.21C278.513 295.407 278.924 294.834 279.445 294.324C279.976 293.803 280.627 293.391 281.398 293.089C282.169 292.777 283.065 292.62 284.085 292.62ZM301.664 310.245C299.341 310.245 297.57 309.516 296.351 308.058C295.143 306.589 294.539 304.454 294.539 301.652C294.539 298.714 295.179 296.475 296.46 294.933C297.742 293.391 299.528 292.62 301.82 292.62C302.799 292.62 303.648 292.772 304.367 293.074C305.096 293.376 305.705 293.787 306.195 294.308C306.695 294.818 307.08 295.402 307.351 296.058H307.476C307.434 295.506 307.403 294.912 307.382 294.277C307.362 293.641 307.351 293.058 307.351 292.527V285.62H308.929V309.933H307.648L307.445 306.824H307.351C307.07 307.449 306.679 308.022 306.179 308.542C305.69 309.063 305.075 309.48 304.335 309.792C303.596 310.094 302.705 310.245 301.664 310.245ZM301.835 308.87C303.835 308.87 305.257 308.251 306.101 307.011C306.945 305.761 307.367 303.98 307.367 301.667V301.417C307.367 299.022 306.945 297.188 306.101 295.917C305.257 294.636 303.882 293.995 301.976 293.995C300.091 293.995 298.648 294.652 297.648 295.964C296.658 297.277 296.164 299.183 296.164 301.683C296.164 304.037 296.627 305.824 297.554 307.042C298.492 308.261 299.919 308.87 301.835 308.87Z" fill="white"/>
</svg>
