<svg width="727" height="731" viewBox="0 0 727 731" fill="none" xmlns="http://www.w3.org/2000/svg">
<circle cx="361.5" cy="365.5" r="269" stroke="#E0CDE5" stroke-width="3"/>
<circle cx="361.5" cy="365.5" r="365" stroke="#E0CDE5"/>
<circle cx="361.5" cy="365.5" r="251" stroke="#E0CDE5"/>
<path d="M382.312 322H332.578V309.812L349.312 292.891C352.781 289.266 355.469 286.359 357.375 284.172C359.312 281.984 360.672 280.125 361.453 278.594C362.234 277.062 362.625 275.469 362.625 273.812C362.625 271.781 361.969 270.312 360.656 269.406C359.344 268.5 357.797 268.047 356.016 268.047C353.859 268.047 351.672 268.672 349.453 269.922C347.266 271.141 344.781 272.953 342 275.359L331.828 263.453C333.891 261.609 336.078 259.859 338.391 258.203C340.703 256.516 343.438 255.141 346.594 254.078C349.75 253.016 353.594 252.484 358.125 252.484C362.781 252.484 366.812 253.297 370.219 254.922C373.656 256.547 376.312 258.781 378.188 261.625C380.062 264.438 381 267.641 381 271.234C381 275.203 380.266 278.75 378.797 281.875C377.359 284.969 375.188 288.078 372.281 291.203C369.375 294.297 365.75 297.812 361.406 301.75L356.391 306.25V306.719H382.312V322ZM265.828 366L257.438 344.906H257.359C257.38 345.292 257.396 345.698 257.406 346.125C257.427 346.542 257.443 346.979 257.453 347.438C257.464 347.896 257.469 348.375 257.469 348.875V366H255.938V343.156H258.375L266.469 363.5H266.562L274.719 343.156H277.094V366H275.516V348.688C275.516 348.281 275.521 347.865 275.531 347.438C275.542 347.01 275.552 346.589 275.562 346.172C275.583 345.745 275.604 345.333 275.625 344.938H275.531L267.109 366H265.828ZM284.734 349.016V366H283.156V349.016H284.734ZM283.969 342.734C284.365 342.734 284.656 342.854 284.844 343.094C285.031 343.323 285.125 343.635 285.125 344.031C285.125 344.427 285.031 344.74 284.844 344.969C284.656 345.198 284.365 345.312 283.969 345.312C283.594 345.312 283.312 345.198 283.125 344.969C282.938 344.74 282.844 344.427 282.844 344.031C282.844 343.635 282.938 343.323 283.125 343.094C283.312 342.854 283.594 342.734 283.969 342.734ZM292.016 366H290.422V341.688H292.016V366ZM299.266 366H297.672V341.688H299.266V366ZM306.484 349.016V366H304.906V349.016H306.484ZM305.719 342.734C306.115 342.734 306.406 342.854 306.594 343.094C306.781 343.323 306.875 343.635 306.875 344.031C306.875 344.427 306.781 344.74 306.594 344.969C306.406 345.198 306.115 345.312 305.719 345.312C305.344 345.312 305.062 345.198 304.875 344.969C304.688 344.74 304.594 344.427 304.594 344.031C304.594 343.635 304.688 343.323 304.875 343.094C305.062 342.854 305.344 342.734 305.719 342.734ZM326.25 357.484C326.25 358.797 326.089 359.995 325.766 361.078C325.443 362.151 324.964 363.078 324.328 363.859C323.693 364.641 322.901 365.245 321.953 365.672C321.016 366.099 319.922 366.312 318.672 366.312C317.484 366.312 316.427 366.104 315.5 365.688C314.573 365.26 313.786 364.656 313.141 363.875C312.505 363.094 312.021 362.167 311.688 361.094C311.354 360.01 311.188 358.807 311.188 357.484C311.188 355.661 311.49 354.094 312.094 352.781C312.708 351.458 313.583 350.448 314.719 349.75C315.865 349.042 317.234 348.688 318.828 348.688C320.474 348.688 321.844 349.062 322.938 349.812C324.042 350.552 324.87 351.583 325.422 352.906C325.974 354.229 326.25 355.755 326.25 357.484ZM312.812 357.484C312.812 358.974 313.026 360.276 313.453 361.391C313.88 362.505 314.526 363.375 315.391 364C316.266 364.625 317.37 364.938 318.703 364.938C320.068 364.938 321.188 364.625 322.062 364C322.938 363.375 323.583 362.5 324 361.375C324.417 360.25 324.625 358.953 324.625 357.484C324.625 356.057 324.427 354.786 324.031 353.672C323.635 352.557 323.01 351.682 322.156 351.047C321.302 350.401 320.188 350.078 318.812 350.078C316.844 350.078 315.349 350.734 314.328 352.047C313.318 353.359 312.812 355.172 312.812 357.484ZM338.422 348.688C340.328 348.688 341.792 349.188 342.812 350.188C343.833 351.188 344.344 352.755 344.344 354.891V366H342.781V354.984C342.781 353.297 342.396 352.057 341.625 351.266C340.854 350.474 339.734 350.078 338.266 350.078C336.401 350.078 334.974 350.625 333.984 351.719C333.005 352.802 332.516 354.443 332.516 356.641V366H330.938V349.016H332.219L332.453 352.109H332.547C332.849 351.474 333.26 350.901 333.781 350.391C334.312 349.87 334.964 349.458 335.734 349.156C336.505 348.844 337.401 348.688 338.422 348.688ZM356.281 348.688C357.729 348.688 358.932 349.026 359.891 349.703C360.859 350.38 361.578 351.307 362.047 352.484C362.526 353.661 362.766 355.01 362.766 356.531V357.672H350.5C350.5 360.005 351.036 361.797 352.109 363.047C353.193 364.297 354.74 364.922 356.75 364.922C357.802 364.922 358.714 364.839 359.484 364.672C360.266 364.495 361.13 364.198 362.078 363.781V365.234C361.245 365.609 360.411 365.88 359.578 366.047C358.745 366.224 357.786 366.312 356.703 366.312C354.984 366.312 353.542 365.958 352.375 365.25C351.219 364.531 350.344 363.521 349.75 362.219C349.167 360.917 348.875 359.396 348.875 357.656C348.875 355.958 349.156 354.432 349.719 353.078C350.292 351.724 351.125 350.656 352.219 349.875C353.323 349.083 354.677 348.688 356.281 348.688ZM356.266 350.047C354.641 350.047 353.323 350.589 352.312 351.672C351.312 352.745 350.724 354.297 350.547 356.328H361.125C361.125 355.089 360.948 353.995 360.594 353.047C360.24 352.099 359.703 351.365 358.984 350.844C358.276 350.312 357.37 350.047 356.266 350.047ZM374.203 348.719C374.651 348.719 375.073 348.745 375.469 348.797C375.865 348.849 376.234 348.922 376.578 349.016L376.328 350.469C375.984 350.375 375.635 350.307 375.281 350.266C374.927 350.214 374.547 350.188 374.141 350.188C373.339 350.188 372.62 350.339 371.984 350.641C371.359 350.943 370.828 351.375 370.391 351.938C369.953 352.5 369.62 353.177 369.391 353.969C369.161 354.76 369.047 355.646 369.047 356.625V366H367.453V349.016H368.812L368.969 352.219H369.062C369.323 351.562 369.688 350.974 370.156 350.453C370.635 349.922 371.214 349.5 371.891 349.188C372.568 348.875 373.339 348.719 374.203 348.719ZM398.844 361.547C398.844 362.557 398.589 363.422 398.078 364.141C397.578 364.849 396.844 365.391 395.875 365.766C394.906 366.13 393.714 366.312 392.297 366.312C391.12 366.312 390.068 366.208 389.141 366C388.214 365.792 387.438 365.536 386.812 365.234V363.672C387.594 364.057 388.458 364.37 389.406 364.609C390.354 364.849 391.328 364.969 392.328 364.969C394.078 364.969 395.339 364.672 396.109 364.078C396.88 363.484 397.266 362.672 397.266 361.641C397.266 360.964 397.073 360.406 396.688 359.969C396.312 359.521 395.771 359.135 395.062 358.812C394.354 358.49 393.5 358.161 392.5 357.828C391.458 357.474 390.531 357.125 389.719 356.781C388.917 356.427 388.286 355.964 387.828 355.391C387.37 354.807 387.141 354.016 387.141 353.016C387.141 351.651 387.688 350.589 388.781 349.828C389.875 349.068 391.344 348.688 393.188 348.688C394.208 348.688 395.156 348.786 396.031 348.984C396.917 349.172 397.719 349.417 398.438 349.719L397.875 351.062C397.229 350.76 396.484 350.516 395.641 350.328C394.797 350.141 393.953 350.047 393.109 350.047C391.724 350.047 390.641 350.292 389.859 350.781C389.078 351.271 388.688 351.99 388.688 352.938C388.688 353.667 388.875 354.24 389.25 354.656C389.625 355.062 390.161 355.406 390.859 355.688C391.557 355.958 392.385 356.26 393.344 356.594C394.333 356.938 395.245 357.297 396.078 357.672C396.922 358.047 397.594 358.531 398.094 359.125C398.594 359.719 398.844 360.526 398.844 361.547ZM417.219 357.484C417.219 358.797 417.057 359.995 416.734 361.078C416.411 362.151 415.932 363.078 415.297 363.859C414.661 364.641 413.87 365.245 412.922 365.672C411.984 366.099 410.891 366.312 409.641 366.312C408.453 366.312 407.396 366.104 406.469 365.688C405.542 365.26 404.755 364.656 404.109 363.875C403.474 363.094 402.99 362.167 402.656 361.094C402.323 360.01 402.156 358.807 402.156 357.484C402.156 355.661 402.458 354.094 403.062 352.781C403.677 351.458 404.552 350.448 405.688 349.75C406.833 349.042 408.203 348.688 409.797 348.688C411.443 348.688 412.812 349.062 413.906 349.812C415.01 350.552 415.839 351.583 416.391 352.906C416.943 354.229 417.219 355.755 417.219 357.484ZM403.781 357.484C403.781 358.974 403.995 360.276 404.422 361.391C404.849 362.505 405.495 363.375 406.359 364C407.234 364.625 408.339 364.938 409.672 364.938C411.036 364.938 412.156 364.625 413.031 364C413.906 363.375 414.552 362.5 414.969 361.375C415.385 360.25 415.594 358.953 415.594 357.484C415.594 356.057 415.396 354.786 415 353.672C414.604 352.557 413.979 351.682 413.125 351.047C412.271 350.401 411.156 350.078 409.781 350.078C407.812 350.078 406.318 350.734 405.297 352.047C404.286 353.359 403.781 355.172 403.781 357.484ZM423.516 366H421.922V341.688H423.516V366ZM433.656 373.688C431.521 373.688 429.859 373.276 428.672 372.453C427.495 371.63 426.906 370.479 426.906 369C426.906 367.854 427.266 366.865 427.984 366.031C428.703 365.208 429.677 364.714 430.906 364.547C430.417 364.318 430.016 364.005 429.703 363.609C429.401 363.214 429.25 362.755 429.25 362.234C429.25 361.651 429.432 361.109 429.797 360.609C430.161 360.099 430.708 359.63 431.438 359.203C430.458 358.849 429.688 358.25 429.125 357.406C428.562 356.552 428.281 355.526 428.281 354.328C428.281 353.182 428.526 352.188 429.016 351.344C429.505 350.5 430.198 349.849 431.094 349.391C432 348.922 433.068 348.688 434.297 348.688C434.672 348.688 435.01 348.698 435.312 348.719C435.625 348.74 435.911 348.776 436.172 348.828C436.432 348.87 436.667 348.927 436.875 349H442.359V350.125L438.859 350.359C439.318 350.911 439.661 351.51 439.891 352.156C440.12 352.792 440.234 353.464 440.234 354.172C440.234 355.859 439.703 357.198 438.641 358.188C437.578 359.177 436.099 359.672 434.203 359.672C433.682 359.672 433.172 359.625 432.672 359.531C432.036 359.906 431.552 360.286 431.219 360.672C430.885 361.047 430.719 361.516 430.719 362.078C430.719 362.432 430.823 362.724 431.031 362.953C431.24 363.172 431.542 363.344 431.938 363.469C432.333 363.583 432.818 363.641 433.391 363.641H436.375C438.219 363.641 439.63 364.016 440.609 364.766C441.589 365.516 442.078 366.62 442.078 368.078C442.078 369.859 441.344 371.24 439.875 372.219C438.417 373.198 436.344 373.688 433.656 373.688ZM433.766 372.359C435.255 372.359 436.495 372.198 437.484 371.875C438.484 371.552 439.234 371.073 439.734 370.438C440.234 369.812 440.484 369.036 440.484 368.109C440.484 367.349 440.302 366.76 439.938 366.344C439.573 365.927 439.057 365.641 438.391 365.484C437.724 365.318 436.938 365.234 436.031 365.234H433.188C432.281 365.234 431.474 365.359 430.766 365.609C430.057 365.849 429.505 366.234 429.109 366.766C428.724 367.297 428.531 368.005 428.531 368.891C428.531 370.026 428.974 370.885 429.859 371.469C430.755 372.062 432.057 372.359 433.766 372.359ZM434.266 358.406C435.672 358.406 436.75 358.052 437.5 357.344C438.25 356.635 438.625 355.609 438.625 354.266C438.625 352.828 438.24 351.75 437.469 351.031C436.698 350.312 435.62 349.953 434.234 349.953C432.891 349.953 431.833 350.339 431.062 351.109C430.302 351.87 429.922 352.943 429.922 354.328C429.922 355.62 430.286 356.625 431.016 357.344C431.745 358.052 432.828 358.406 434.266 358.406ZM450.375 364.953C450.865 364.953 451.318 364.917 451.734 364.844C452.161 364.771 452.536 364.677 452.859 364.562V365.875C452.526 365.99 452.135 366.089 451.688 366.172C451.24 366.266 450.745 366.312 450.203 366.312C449.245 366.312 448.448 366.135 447.812 365.781C447.177 365.417 446.698 364.87 446.375 364.141C446.052 363.401 445.891 362.464 445.891 361.328V350.328H443.359V349.391L445.875 348.906L446.422 344.906H447.469V349.016H452.766V350.328H447.469V361.234C447.469 362.453 447.693 363.38 448.141 364.016C448.599 364.641 449.344 364.953 450.375 364.953ZM462.938 348.688C464.385 348.688 465.589 349.026 466.547 349.703C467.516 350.38 468.234 351.307 468.703 352.484C469.182 353.661 469.422 355.01 469.422 356.531V357.672H457.156C457.156 360.005 457.693 361.797 458.766 363.047C459.849 364.297 461.396 364.922 463.406 364.922C464.458 364.922 465.37 364.839 466.141 364.672C466.922 364.495 467.786 364.198 468.734 363.781V365.234C467.901 365.609 467.068 365.88 466.234 366.047C465.401 366.224 464.443 366.312 463.359 366.312C461.641 366.312 460.198 365.958 459.031 365.25C457.875 364.531 457 363.521 456.406 362.219C455.823 360.917 455.531 359.396 455.531 357.656C455.531 355.958 455.812 354.432 456.375 353.078C456.948 351.724 457.781 350.656 458.875 349.875C459.979 349.083 461.333 348.688 462.938 348.688ZM462.922 350.047C461.297 350.047 459.979 350.589 458.969 351.672C457.969 352.745 457.38 354.297 457.203 356.328H467.781C467.781 355.089 467.604 353.995 467.25 353.047C466.896 352.099 466.359 351.365 465.641 350.844C464.932 350.312 464.026 350.047 462.922 350.047ZM274.016 394.328H270.016V410H268.438V394.328H265.281V393.391L268.438 392.984V391.109C268.438 389.859 268.615 388.823 268.969 388C269.333 387.167 269.88 386.547 270.609 386.141C271.349 385.724 272.281 385.516 273.406 385.516C273.99 385.516 274.516 385.562 274.984 385.656C275.453 385.74 275.891 385.849 276.297 385.984L275.938 387.312C275.573 387.188 275.167 387.083 274.719 387C274.281 386.917 273.849 386.875 273.422 386.875C272.224 386.875 271.354 387.208 270.812 387.875C270.281 388.531 270.016 389.604 270.016 391.094V393.016H274.016V394.328ZM291.406 401.484C291.406 402.797 291.245 403.995 290.922 405.078C290.599 406.151 290.12 407.078 289.484 407.859C288.849 408.641 288.057 409.245 287.109 409.672C286.172 410.099 285.078 410.312 283.828 410.312C282.641 410.312 281.583 410.104 280.656 409.688C279.729 409.26 278.943 408.656 278.297 407.875C277.661 407.094 277.177 406.167 276.844 405.094C276.51 404.01 276.344 402.807 276.344 401.484C276.344 399.661 276.646 398.094 277.25 396.781C277.865 395.458 278.74 394.448 279.875 393.75C281.021 393.042 282.391 392.688 283.984 392.688C285.63 392.688 287 393.062 288.094 393.812C289.198 394.552 290.026 395.583 290.578 396.906C291.13 398.229 291.406 399.755 291.406 401.484ZM277.969 401.484C277.969 402.974 278.182 404.276 278.609 405.391C279.036 406.505 279.682 407.375 280.547 408C281.422 408.625 282.526 408.938 283.859 408.938C285.224 408.938 286.344 408.625 287.219 408C288.094 407.375 288.74 406.5 289.156 405.375C289.573 404.25 289.781 402.953 289.781 401.484C289.781 400.057 289.583 398.786 289.188 397.672C288.792 396.557 288.167 395.682 287.312 395.047C286.458 394.401 285.344 394.078 283.969 394.078C282 394.078 280.505 394.734 279.484 396.047C278.474 397.359 277.969 399.172 277.969 401.484ZM300.688 408.953C301.177 408.953 301.63 408.917 302.047 408.844C302.474 408.771 302.849 408.677 303.172 408.562V409.875C302.839 409.99 302.448 410.089 302 410.172C301.552 410.266 301.057 410.312 300.516 410.312C299.557 410.312 298.76 410.135 298.125 409.781C297.49 409.417 297.01 408.87 296.688 408.141C296.365 407.401 296.203 406.464 296.203 405.328V394.328H293.672V393.391L296.188 392.906L296.734 388.906H297.781V393.016H303.078V394.328H297.781V405.234C297.781 406.453 298.005 407.38 298.453 408.016C298.911 408.641 299.656 408.953 300.688 408.953ZM320.906 401.484C320.906 402.797 320.745 403.995 320.422 405.078C320.099 406.151 319.62 407.078 318.984 407.859C318.349 408.641 317.557 409.245 316.609 409.672C315.672 410.099 314.578 410.312 313.328 410.312C312.141 410.312 311.083 410.104 310.156 409.688C309.229 409.26 308.443 408.656 307.797 407.875C307.161 407.094 306.677 406.167 306.344 405.094C306.01 404.01 305.844 402.807 305.844 401.484C305.844 399.661 306.146 398.094 306.75 396.781C307.365 395.458 308.24 394.448 309.375 393.75C310.521 393.042 311.891 392.688 313.484 392.688C315.13 392.688 316.5 393.062 317.594 393.812C318.698 394.552 319.526 395.583 320.078 396.906C320.63 398.229 320.906 399.755 320.906 401.484ZM307.469 401.484C307.469 402.974 307.682 404.276 308.109 405.391C308.536 406.505 309.182 407.375 310.047 408C310.922 408.625 312.026 408.938 313.359 408.938C314.724 408.938 315.844 408.625 316.719 408C317.594 407.375 318.24 406.5 318.656 405.375C319.073 404.25 319.281 402.953 319.281 401.484C319.281 400.057 319.083 398.786 318.688 397.672C318.292 396.557 317.667 395.682 316.812 395.047C315.958 394.401 314.844 394.078 313.469 394.078C311.5 394.078 310.005 394.734 308.984 396.047C307.974 397.359 307.469 399.172 307.469 401.484ZM336.219 405.547C336.219 406.557 335.964 407.422 335.453 408.141C334.953 408.849 334.219 409.391 333.25 409.766C332.281 410.13 331.089 410.312 329.672 410.312C328.495 410.312 327.443 410.208 326.516 410C325.589 409.792 324.812 409.536 324.188 409.234V407.672C324.969 408.057 325.833 408.37 326.781 408.609C327.729 408.849 328.703 408.969 329.703 408.969C331.453 408.969 332.714 408.672 333.484 408.078C334.255 407.484 334.641 406.672 334.641 405.641C334.641 404.964 334.448 404.406 334.062 403.969C333.688 403.521 333.146 403.135 332.438 402.812C331.729 402.49 330.875 402.161 329.875 401.828C328.833 401.474 327.906 401.125 327.094 400.781C326.292 400.427 325.661 399.964 325.203 399.391C324.745 398.807 324.516 398.016 324.516 397.016C324.516 395.651 325.062 394.589 326.156 393.828C327.25 393.068 328.719 392.688 330.562 392.688C331.583 392.688 332.531 392.786 333.406 392.984C334.292 393.172 335.094 393.417 335.812 393.719L335.25 395.062C334.604 394.76 333.859 394.516 333.016 394.328C332.172 394.141 331.328 394.047 330.484 394.047C329.099 394.047 328.016 394.292 327.234 394.781C326.453 395.271 326.062 395.99 326.062 396.938C326.062 397.667 326.25 398.24 326.625 398.656C327 399.062 327.536 399.406 328.234 399.688C328.932 399.958 329.76 400.26 330.719 400.594C331.708 400.938 332.62 401.297 333.453 401.672C334.297 402.047 334.969 402.531 335.469 403.125C335.969 403.719 336.219 404.526 336.219 405.547ZM362.906 401.484C362.906 402.797 362.745 403.995 362.422 405.078C362.099 406.151 361.62 407.078 360.984 407.859C360.349 408.641 359.557 409.245 358.609 409.672C357.672 410.099 356.578 410.312 355.328 410.312C354.141 410.312 353.083 410.104 352.156 409.688C351.229 409.26 350.443 408.656 349.797 407.875C349.161 407.094 348.677 406.167 348.344 405.094C348.01 404.01 347.844 402.807 347.844 401.484C347.844 399.661 348.146 398.094 348.75 396.781C349.365 395.458 350.24 394.448 351.375 393.75C352.521 393.042 353.891 392.688 355.484 392.688C357.13 392.688 358.5 393.062 359.594 393.812C360.698 394.552 361.526 395.583 362.078 396.906C362.63 398.229 362.906 399.755 362.906 401.484ZM349.469 401.484C349.469 402.974 349.682 404.276 350.109 405.391C350.536 406.505 351.182 407.375 352.047 408C352.922 408.625 354.026 408.938 355.359 408.938C356.724 408.938 357.844 408.625 358.719 408C359.594 407.375 360.24 406.5 360.656 405.375C361.073 404.25 361.281 402.953 361.281 401.484C361.281 400.057 361.083 398.786 360.688 397.672C360.292 396.557 359.667 395.682 358.812 395.047C357.958 394.401 356.844 394.078 355.469 394.078C353.5 394.078 352.005 394.734 350.984 396.047C349.974 397.359 349.469 399.172 349.469 401.484ZM385.125 392.688C386.76 392.688 388.052 393.161 389 394.109C389.948 395.057 390.422 396.552 390.422 398.594V410H388.875V398.656C388.875 397.083 388.516 395.927 387.797 395.188C387.078 394.448 386.13 394.078 384.953 394.078C383.339 394.078 382.073 394.552 381.156 395.5C380.25 396.438 379.797 397.917 379.797 399.938V410H378.234V398.656C378.234 397.604 378.068 396.745 377.734 396.078C377.411 395.401 376.958 394.901 376.375 394.578C375.792 394.245 375.104 394.078 374.312 394.078C373.26 394.078 372.349 394.297 371.578 394.734C370.807 395.161 370.214 395.828 369.797 396.734C369.38 397.63 369.172 398.771 369.172 400.156V410H367.594V393.016H368.875L369.109 395.797H369.203C369.484 395.245 369.859 394.734 370.328 394.266C370.797 393.797 371.375 393.417 372.062 393.125C372.76 392.833 373.578 392.688 374.516 392.688C375.734 392.688 376.766 392.964 377.609 393.516C378.464 394.057 379.057 394.865 379.391 395.938H379.5C379.958 394.917 380.667 394.12 381.625 393.547C382.594 392.974 383.76 392.688 385.125 392.688ZM410.125 392.719C411.99 392.719 413.385 393.188 414.312 394.125C415.24 395.062 415.703 396.557 415.703 398.609V410H414.484L414.203 407.031H414.109C413.745 407.667 413.302 408.234 412.781 408.734C412.26 409.224 411.62 409.609 410.859 409.891C410.109 410.172 409.193 410.312 408.109 410.312C407.016 410.312 406.078 410.13 405.297 409.766C404.526 409.401 403.927 408.87 403.5 408.172C403.083 407.474 402.875 406.625 402.875 405.625C402.875 403.938 403.573 402.656 404.969 401.781C406.365 400.896 408.37 400.396 410.984 400.281L414.141 400.125V398.891C414.141 397.151 413.797 395.911 413.109 395.172C412.422 394.432 411.406 394.062 410.062 394.062C409.188 394.062 408.344 394.177 407.531 394.406C406.729 394.625 405.911 394.943 405.078 395.359L404.578 394.047C405.391 393.661 406.26 393.344 407.188 393.094C408.125 392.844 409.104 392.719 410.125 392.719ZM414.125 401.359L411.156 401.484C409 401.589 407.359 401.974 406.234 402.641C405.109 403.307 404.547 404.307 404.547 405.641C404.547 406.714 404.88 407.536 405.547 408.109C406.224 408.682 407.161 408.969 408.359 408.969C410.224 408.969 411.646 408.438 412.625 407.375C413.615 406.312 414.115 404.865 414.125 403.031V401.359ZM409.734 390.516C408.807 390.516 408.021 390.219 407.375 389.625C406.729 389.031 406.406 388.234 406.406 387.234C406.406 386.266 406.724 385.479 407.359 384.875C407.995 384.271 408.786 383.969 409.734 383.969C410.661 383.969 411.448 384.276 412.094 384.891C412.74 385.505 413.062 386.281 413.062 387.219C413.062 388.219 412.74 389.021 412.094 389.625C411.448 390.219 410.661 390.516 409.734 390.516ZM409.734 389.438C410.38 389.438 410.906 389.229 411.312 388.812C411.719 388.385 411.922 387.859 411.922 387.234C411.922 386.599 411.708 386.078 411.281 385.672C410.854 385.255 410.339 385.047 409.734 385.047C409.109 385.047 408.583 385.255 408.156 385.672C407.729 386.078 407.516 386.599 407.516 387.234C407.516 387.859 407.719 388.385 408.125 388.812C408.531 389.229 409.068 389.438 409.734 389.438ZM427.922 392.719C428.37 392.719 428.792 392.745 429.188 392.797C429.583 392.849 429.953 392.922 430.297 393.016L430.047 394.469C429.703 394.375 429.354 394.307 429 394.266C428.646 394.214 428.266 394.188 427.859 394.188C427.057 394.188 426.339 394.339 425.703 394.641C425.078 394.943 424.547 395.375 424.109 395.938C423.672 396.5 423.339 397.177 423.109 397.969C422.88 398.76 422.766 399.646 422.766 400.625V410H421.172V393.016H422.531L422.688 396.219H422.781C423.042 395.562 423.406 394.974 423.875 394.453C424.354 393.922 424.932 393.5 425.609 393.188C426.286 392.875 427.057 392.719 427.922 392.719ZM440.062 392.688C441.51 392.688 442.714 393.026 443.672 393.703C444.641 394.38 445.359 395.307 445.828 396.484C446.307 397.661 446.547 399.01 446.547 400.531V401.672H434.281C434.281 404.005 434.818 405.797 435.891 407.047C436.974 408.297 438.521 408.922 440.531 408.922C441.583 408.922 442.495 408.839 443.266 408.672C444.047 408.495 444.911 408.198 445.859 407.781V409.234C445.026 409.609 444.193 409.88 443.359 410.047C442.526 410.224 441.568 410.312 440.484 410.312C438.766 410.312 437.323 409.958 436.156 409.25C435 408.531 434.125 407.521 433.531 406.219C432.948 404.917 432.656 403.396 432.656 401.656C432.656 399.958 432.938 398.432 433.5 397.078C434.073 395.724 434.906 394.656 436 393.875C437.104 393.083 438.458 392.688 440.062 392.688ZM440.047 394.047C438.422 394.047 437.104 394.589 436.094 395.672C435.094 396.745 434.505 398.297 434.328 400.328H444.906C444.906 399.089 444.729 397.995 444.375 397.047C444.021 396.099 443.484 395.365 442.766 394.844C442.057 394.312 441.151 394.047 440.047 394.047ZM455.812 408.953C456.302 408.953 456.755 408.917 457.172 408.844C457.599 408.771 457.974 408.677 458.297 408.562V409.875C457.964 409.99 457.573 410.089 457.125 410.172C456.677 410.266 456.182 410.312 455.641 410.312C454.682 410.312 453.885 410.135 453.25 409.781C452.615 409.417 452.135 408.87 451.812 408.141C451.49 407.401 451.328 406.464 451.328 405.328V394.328H448.797V393.391L451.312 392.906L451.859 388.906H452.906V393.016H458.203V394.328H452.906V405.234C452.906 406.453 453.13 407.38 453.578 408.016C454.036 408.641 454.781 408.953 455.812 408.953Z" fill="white"/>
</svg>
