<svg width="596" height="596" viewBox="0 0 596 596" fill="none" xmlns="http://www.w3.org/2000/svg">
<circle cx="298" cy="298" r="219.044" stroke="#E0CDE5" stroke-width="3"/>
<circle cx="298" cy="298" r="297.5" stroke="#E0CDE5"/>
<circle cx="298" cy="298" r="204.553" stroke="#E0CDE5"/>
<path d="M318.72 280.308H268.985V268.12L285.72 251.198C289.189 247.573 291.876 244.667 293.782 242.48C295.72 240.292 297.079 238.433 297.86 236.902C298.642 235.37 299.032 233.777 299.032 232.12C299.032 230.089 298.376 228.62 297.064 227.714C295.751 226.808 294.204 226.355 292.423 226.355C290.267 226.355 288.079 226.98 285.86 228.23C283.673 229.448 281.189 231.261 278.407 233.667L268.235 221.761C270.298 219.917 272.485 218.167 274.798 216.511C277.11 214.823 279.845 213.448 283.001 212.386C286.157 211.323 290.001 210.792 294.532 210.792C299.189 210.792 303.22 211.605 306.626 213.23C310.064 214.855 312.72 217.089 314.595 219.933C316.47 222.745 317.407 225.948 317.407 229.542C317.407 233.511 316.673 237.058 315.204 240.183C313.767 243.277 311.595 246.386 308.689 249.511C305.782 252.605 302.157 256.12 297.814 260.058L292.798 264.558V265.027H318.72V280.308ZM236.329 312.777H244.72V323.261C243.626 323.719 242.459 324.063 241.22 324.292C239.98 324.511 238.663 324.62 237.267 324.62C234.84 324.62 232.793 324.162 231.126 323.245C229.47 322.318 228.215 320.98 227.36 319.23C226.506 317.48 226.079 315.376 226.079 312.917C226.079 310.626 226.543 308.589 227.47 306.808C228.407 305.027 229.746 303.631 231.485 302.62C233.225 301.61 235.308 301.105 237.735 301.105C238.985 301.105 240.163 301.219 241.267 301.448C242.381 301.678 243.439 302.021 244.439 302.48L243.798 303.917C242.808 303.459 241.798 303.115 240.767 302.886C239.746 302.657 238.709 302.542 237.657 302.542C235.595 302.542 233.819 302.985 232.329 303.87C230.85 304.745 229.715 305.964 228.923 307.527C228.142 309.079 227.751 310.87 227.751 312.902C227.751 315.204 228.131 317.115 228.892 318.636C229.652 320.157 230.762 321.297 232.22 322.058C233.689 322.818 235.47 323.198 237.564 323.198C238.709 323.198 239.735 323.115 240.642 322.948C241.558 322.782 242.387 322.563 243.126 322.292V314.245H236.329V312.777ZM256.001 307.027C257.866 307.027 259.262 307.495 260.189 308.433C261.116 309.37 261.579 310.865 261.579 312.917V324.308H260.36L260.079 321.339H259.985C259.621 321.974 259.178 322.542 258.657 323.042C258.137 323.532 257.496 323.917 256.735 324.198C255.985 324.48 255.069 324.62 253.985 324.62C252.892 324.62 251.954 324.438 251.173 324.073C250.402 323.709 249.803 323.178 249.376 322.48C248.959 321.782 248.751 320.933 248.751 319.933C248.751 318.245 249.449 316.964 250.845 316.089C252.241 315.204 254.246 314.704 256.86 314.589L260.017 314.433V313.198C260.017 311.459 259.673 310.219 258.985 309.48C258.298 308.74 257.282 308.37 255.939 308.37C255.064 308.37 254.22 308.485 253.407 308.714C252.605 308.933 251.788 309.251 250.954 309.667L250.454 308.355C251.267 307.969 252.137 307.652 253.064 307.402C254.001 307.152 254.98 307.027 256.001 307.027ZM260.001 315.667L257.032 315.792C254.876 315.896 253.235 316.282 252.11 316.948C250.985 317.615 250.423 318.615 250.423 319.948C250.423 321.021 250.756 321.844 251.423 322.417C252.1 322.99 253.038 323.277 254.235 323.277C256.1 323.277 257.522 322.745 258.501 321.683C259.491 320.62 259.991 319.172 260.001 317.339V315.667ZM274.517 306.995C276.423 306.995 277.887 307.495 278.907 308.495C279.928 309.495 280.439 311.063 280.439 313.198V324.308H278.876V313.292C278.876 311.605 278.491 310.365 277.72 309.573C276.949 308.782 275.829 308.386 274.36 308.386C272.496 308.386 271.069 308.933 270.079 310.027C269.1 311.11 268.61 312.751 268.61 314.948V324.308H267.032V307.323H268.314L268.548 310.417H268.642C268.944 309.782 269.355 309.209 269.876 308.698C270.407 308.178 271.058 307.766 271.829 307.464C272.6 307.152 273.496 306.995 274.517 306.995ZM290.439 331.995C288.303 331.995 286.642 331.584 285.454 330.761C284.277 329.938 283.689 328.787 283.689 327.308C283.689 326.162 284.048 325.172 284.767 324.339C285.485 323.516 286.459 323.021 287.689 322.855C287.199 322.626 286.798 322.313 286.485 321.917C286.183 321.521 286.032 321.063 286.032 320.542C286.032 319.959 286.215 319.417 286.579 318.917C286.944 318.407 287.491 317.938 288.22 317.511C287.241 317.157 286.47 316.558 285.907 315.714C285.345 314.86 285.064 313.834 285.064 312.636C285.064 311.49 285.308 310.495 285.798 309.652C286.288 308.808 286.98 308.157 287.876 307.698C288.782 307.23 289.85 306.995 291.079 306.995C291.454 306.995 291.793 307.006 292.095 307.027C292.407 307.047 292.694 307.084 292.954 307.136C293.215 307.178 293.449 307.235 293.657 307.308H299.142V308.433L295.642 308.667C296.1 309.219 296.444 309.818 296.673 310.464C296.902 311.099 297.017 311.771 297.017 312.48C297.017 314.167 296.485 315.506 295.423 316.495C294.36 317.485 292.881 317.98 290.985 317.98C290.465 317.98 289.954 317.933 289.454 317.839C288.819 318.214 288.334 318.594 288.001 318.98C287.668 319.355 287.501 319.823 287.501 320.386C287.501 320.74 287.605 321.032 287.814 321.261C288.022 321.48 288.324 321.652 288.72 321.777C289.116 321.891 289.6 321.948 290.173 321.948H293.157C295.001 321.948 296.413 322.323 297.392 323.073C298.371 323.823 298.86 324.928 298.86 326.386C298.86 328.167 298.126 329.547 296.657 330.527C295.199 331.506 293.126 331.995 290.439 331.995ZM290.548 330.667C292.038 330.667 293.277 330.506 294.267 330.183C295.267 329.86 296.017 329.381 296.517 328.745C297.017 328.12 297.267 327.344 297.267 326.417C297.267 325.657 297.084 325.068 296.72 324.652C296.355 324.235 295.84 323.948 295.173 323.792C294.506 323.626 293.72 323.542 292.814 323.542H289.97C289.064 323.542 288.256 323.667 287.548 323.917C286.84 324.157 286.288 324.542 285.892 325.073C285.506 325.605 285.314 326.313 285.314 327.198C285.314 328.334 285.756 329.193 286.642 329.777C287.538 330.37 288.84 330.667 290.548 330.667ZM291.048 316.714C292.454 316.714 293.532 316.36 294.282 315.652C295.032 314.943 295.407 313.917 295.407 312.573C295.407 311.136 295.022 310.058 294.251 309.339C293.48 308.62 292.402 308.261 291.017 308.261C289.673 308.261 288.616 308.646 287.845 309.417C287.084 310.178 286.704 311.251 286.704 312.636C286.704 313.928 287.069 314.933 287.798 315.652C288.527 316.36 289.61 316.714 291.048 316.714ZM309.001 306.995C310.449 306.995 311.652 307.334 312.61 308.011C313.579 308.688 314.298 309.615 314.767 310.792C315.246 311.969 315.485 313.318 315.485 314.839V315.98H303.22C303.22 318.313 303.756 320.105 304.829 321.355C305.913 322.605 307.459 323.23 309.47 323.23C310.522 323.23 311.433 323.146 312.204 322.98C312.985 322.803 313.85 322.506 314.798 322.089V323.542C313.965 323.917 313.131 324.188 312.298 324.355C311.465 324.532 310.506 324.62 309.423 324.62C307.704 324.62 306.262 324.266 305.095 323.558C303.939 322.839 303.064 321.829 302.47 320.527C301.887 319.224 301.595 317.704 301.595 315.964C301.595 314.266 301.876 312.74 302.439 311.386C303.012 310.032 303.845 308.964 304.939 308.183C306.043 307.391 307.397 306.995 309.001 306.995ZM308.985 308.355C307.36 308.355 306.043 308.896 305.032 309.98C304.032 311.053 303.444 312.605 303.267 314.636H313.845C313.845 313.396 313.668 312.303 313.314 311.355C312.959 310.407 312.423 309.672 311.704 309.152C310.996 308.62 310.09 308.355 308.985 308.355ZM342.564 315.792C342.564 317.105 342.402 318.303 342.079 319.386C341.756 320.459 341.277 321.386 340.642 322.167C340.006 322.948 339.215 323.553 338.267 323.98C337.329 324.407 336.236 324.62 334.986 324.62C333.798 324.62 332.741 324.412 331.814 323.995C330.887 323.568 330.1 322.964 329.454 322.183C328.819 321.402 328.334 320.474 328.001 319.402C327.668 318.318 327.501 317.115 327.501 315.792C327.501 313.969 327.803 312.402 328.407 311.089C329.022 309.766 329.897 308.756 331.032 308.058C332.178 307.349 333.548 306.995 335.142 306.995C336.788 306.995 338.157 307.37 339.251 308.12C340.355 308.86 341.183 309.891 341.736 311.214C342.288 312.537 342.564 314.063 342.564 315.792ZM329.126 315.792C329.126 317.282 329.34 318.584 329.767 319.698C330.194 320.813 330.84 321.683 331.704 322.308C332.579 322.933 333.683 323.245 335.017 323.245C336.381 323.245 337.501 322.933 338.376 322.308C339.251 321.683 339.897 320.808 340.314 319.683C340.73 318.558 340.939 317.261 340.939 315.792C340.939 314.365 340.741 313.094 340.345 311.98C339.949 310.865 339.324 309.99 338.47 309.355C337.616 308.709 336.501 308.386 335.126 308.386C333.157 308.386 331.663 309.042 330.642 310.355C329.631 311.667 329.126 313.48 329.126 315.792ZM364.782 306.995C366.418 306.995 367.709 307.469 368.657 308.417C369.605 309.365 370.079 310.86 370.079 312.902V324.308H368.532V312.964C368.532 311.391 368.173 310.235 367.454 309.495C366.736 308.756 365.788 308.386 364.611 308.386C362.996 308.386 361.73 308.86 360.814 309.808C359.907 310.745 359.454 312.224 359.454 314.245V324.308H357.892V312.964C357.892 311.912 357.725 311.053 357.392 310.386C357.069 309.709 356.616 309.209 356.032 308.886C355.449 308.553 354.762 308.386 353.97 308.386C352.918 308.386 352.006 308.605 351.236 309.042C350.465 309.469 349.871 310.136 349.454 311.042C349.038 311.938 348.829 313.079 348.829 314.464V324.308H347.251V307.323H348.532L348.767 310.105H348.861C349.142 309.553 349.517 309.042 349.986 308.573C350.454 308.105 351.032 307.724 351.72 307.433C352.418 307.141 353.236 306.995 354.173 306.995C355.392 306.995 356.423 307.271 357.267 307.823C358.121 308.365 358.715 309.172 359.048 310.245H359.157C359.616 309.224 360.324 308.428 361.282 307.855C362.251 307.282 363.418 306.995 364.782 306.995ZM209.579 368.62C207.256 368.62 205.485 367.891 204.267 366.433C203.058 364.964 202.454 362.829 202.454 360.027C202.454 357.089 203.095 354.849 204.376 353.308C205.657 351.766 207.444 350.995 209.735 350.995C210.715 350.995 211.564 351.146 212.282 351.448C213.012 351.751 213.621 352.162 214.11 352.683C214.61 353.193 214.996 353.777 215.267 354.433H215.392C215.35 353.881 215.319 353.287 215.298 352.652C215.277 352.016 215.267 351.433 215.267 350.902V343.995H216.845V368.308H215.564L215.36 365.198H215.267C214.985 365.823 214.595 366.396 214.095 366.917C213.605 367.438 212.991 367.855 212.251 368.167C211.512 368.469 210.621 368.62 209.579 368.62ZM209.751 367.245C211.751 367.245 213.173 366.626 214.017 365.386C214.86 364.136 215.282 362.355 215.282 360.042V359.792C215.282 357.396 214.86 355.563 214.017 354.292C213.173 353.011 211.798 352.37 209.892 352.37C208.006 352.37 206.564 353.027 205.564 354.339C204.574 355.652 204.079 357.558 204.079 360.058C204.079 362.412 204.543 364.198 205.47 365.417C206.407 366.636 207.834 367.245 209.751 367.245ZM228.423 351.027C230.288 351.027 231.683 351.495 232.61 352.433C233.538 353.37 234.001 354.865 234.001 356.917V368.308H232.782L232.501 365.339H232.407C232.043 365.974 231.6 366.542 231.079 367.042C230.558 367.532 229.918 367.917 229.157 368.198C228.407 368.48 227.491 368.62 226.407 368.62C225.314 368.62 224.376 368.438 223.595 368.073C222.824 367.709 222.225 367.178 221.798 366.48C221.381 365.782 221.173 364.933 221.173 363.933C221.173 362.245 221.871 360.964 223.267 360.089C224.663 359.204 226.668 358.704 229.282 358.589L232.439 358.433V357.198C232.439 355.459 232.095 354.219 231.407 353.48C230.72 352.74 229.704 352.37 228.36 352.37C227.485 352.37 226.642 352.485 225.829 352.714C225.027 352.933 224.209 353.251 223.376 353.667L222.876 352.355C223.689 351.969 224.558 351.652 225.485 351.402C226.423 351.152 227.402 351.027 228.423 351.027ZM232.423 359.667L229.454 359.792C227.298 359.896 225.657 360.282 224.532 360.948C223.407 361.615 222.845 362.615 222.845 363.948C222.845 365.021 223.178 365.844 223.845 366.417C224.522 366.99 225.459 367.277 226.657 367.277C228.522 367.277 229.944 366.745 230.923 365.683C231.913 364.62 232.413 363.172 232.423 361.339V359.667ZM243.954 375.995C241.819 375.995 240.157 375.584 238.97 374.761C237.793 373.938 237.204 372.787 237.204 371.308C237.204 370.162 237.564 369.172 238.282 368.339C239.001 367.516 239.975 367.021 241.204 366.855C240.715 366.626 240.314 366.313 240.001 365.917C239.699 365.521 239.548 365.063 239.548 364.542C239.548 363.959 239.73 363.417 240.095 362.917C240.459 362.407 241.006 361.938 241.735 361.511C240.756 361.157 239.985 360.558 239.423 359.714C238.86 358.86 238.579 357.834 238.579 356.636C238.579 355.49 238.824 354.495 239.314 353.652C239.803 352.808 240.496 352.157 241.392 351.698C242.298 351.23 243.366 350.995 244.595 350.995C244.97 350.995 245.308 351.006 245.61 351.027C245.923 351.047 246.209 351.084 246.47 351.136C246.73 351.178 246.965 351.235 247.173 351.308H252.657V352.433L249.157 352.667C249.616 353.219 249.959 353.818 250.189 354.464C250.418 355.099 250.532 355.771 250.532 356.48C250.532 358.167 250.001 359.506 248.939 360.495C247.876 361.485 246.397 361.98 244.501 361.98C243.98 361.98 243.47 361.933 242.97 361.839C242.334 362.214 241.85 362.594 241.517 362.98C241.183 363.355 241.017 363.823 241.017 364.386C241.017 364.74 241.121 365.032 241.329 365.261C241.538 365.48 241.84 365.652 242.235 365.777C242.631 365.891 243.116 365.948 243.689 365.948H246.673C248.517 365.948 249.928 366.323 250.907 367.073C251.887 367.823 252.376 368.928 252.376 370.386C252.376 372.167 251.642 373.547 250.173 374.527C248.715 375.506 246.642 375.995 243.954 375.995ZM244.064 374.667C245.553 374.667 246.793 374.506 247.782 374.183C248.782 373.86 249.532 373.381 250.032 372.745C250.532 372.12 250.782 371.344 250.782 370.417C250.782 369.657 250.6 369.068 250.235 368.652C249.871 368.235 249.355 367.948 248.689 367.792C248.022 367.626 247.235 367.542 246.329 367.542H243.485C242.579 367.542 241.772 367.667 241.064 367.917C240.355 368.157 239.803 368.542 239.407 369.073C239.022 369.605 238.829 370.313 238.829 371.198C238.829 372.334 239.272 373.193 240.157 373.777C241.053 374.37 242.355 374.667 244.064 374.667ZM244.564 360.714C245.97 360.714 247.048 360.36 247.798 359.652C248.548 358.943 248.923 357.917 248.923 356.573C248.923 355.136 248.538 354.058 247.767 353.339C246.996 352.62 245.918 352.261 244.532 352.261C243.189 352.261 242.131 352.646 241.36 353.417C240.6 354.178 240.22 355.251 240.22 356.636C240.22 357.928 240.584 358.933 241.314 359.652C242.043 360.36 243.126 360.714 244.564 360.714ZM262.517 350.995C263.965 350.995 265.168 351.334 266.126 352.011C267.095 352.688 267.814 353.615 268.282 354.792C268.762 355.969 269.001 357.318 269.001 358.839V359.98H256.735C256.735 362.313 257.272 364.105 258.345 365.355C259.428 366.605 260.975 367.23 262.985 367.23C264.038 367.23 264.949 367.146 265.72 366.98C266.501 366.803 267.366 366.506 268.314 366.089V367.542C267.48 367.917 266.647 368.188 265.814 368.355C264.98 368.532 264.022 368.62 262.939 368.62C261.22 368.62 259.777 368.266 258.61 367.558C257.454 366.839 256.579 365.829 255.985 364.527C255.402 363.224 255.11 361.704 255.11 359.964C255.11 358.266 255.392 356.74 255.954 355.386C256.527 354.032 257.36 352.964 258.454 352.183C259.558 351.391 260.913 350.995 262.517 350.995ZM262.501 352.355C260.876 352.355 259.558 352.896 258.548 353.98C257.548 355.053 256.959 356.605 256.782 358.636H267.36C267.36 357.396 267.183 356.303 266.829 355.355C266.475 354.407 265.939 353.672 265.22 353.152C264.512 352.62 263.605 352.355 262.501 352.355ZM281.157 350.995C283.064 350.995 284.527 351.495 285.548 352.495C286.569 353.495 287.079 355.063 287.079 357.198V368.308H285.517V357.292C285.517 355.605 285.131 354.365 284.36 353.573C283.59 352.782 282.47 352.386 281.001 352.386C279.137 352.386 277.709 352.933 276.72 354.027C275.741 355.11 275.251 356.751 275.251 358.948V368.308H273.673V351.323H274.954L275.189 354.417H275.282C275.584 353.782 275.996 353.209 276.517 352.698C277.048 352.178 277.699 351.766 278.47 351.464C279.241 351.152 280.137 350.995 281.157 350.995ZM294.423 364.589L294.564 364.964C294.397 365.745 294.189 366.568 293.939 367.433C293.699 368.297 293.433 369.157 293.142 370.011C292.86 370.876 292.558 371.683 292.235 372.433H291.017C291.288 371.485 291.532 370.558 291.751 369.652C291.97 368.756 292.163 367.886 292.329 367.042C292.496 366.188 292.631 365.37 292.735 364.589H294.423ZM318.392 363.855C318.392 364.865 318.137 365.73 317.626 366.448C317.126 367.157 316.392 367.698 315.423 368.073C314.454 368.438 313.262 368.62 311.845 368.62C310.668 368.62 309.616 368.516 308.689 368.308C307.762 368.099 306.985 367.844 306.36 367.542V365.98C307.142 366.365 308.006 366.678 308.954 366.917C309.902 367.157 310.876 367.277 311.876 367.277C313.626 367.277 314.887 366.98 315.657 366.386C316.428 365.792 316.814 364.98 316.814 363.948C316.814 363.271 316.621 362.714 316.235 362.277C315.86 361.829 315.319 361.443 314.61 361.12C313.902 360.797 313.048 360.469 312.048 360.136C311.006 359.782 310.079 359.433 309.267 359.089C308.465 358.735 307.834 358.271 307.376 357.698C306.918 357.115 306.689 356.323 306.689 355.323C306.689 353.959 307.235 352.896 308.329 352.136C309.423 351.376 310.892 350.995 312.735 350.995C313.756 350.995 314.704 351.094 315.579 351.292C316.465 351.48 317.267 351.724 317.985 352.027L317.423 353.37C316.777 353.068 316.032 352.823 315.189 352.636C314.345 352.448 313.501 352.355 312.657 352.355C311.272 352.355 310.189 352.599 309.407 353.089C308.626 353.579 308.235 354.297 308.235 355.245C308.235 355.974 308.423 356.547 308.798 356.964C309.173 357.37 309.709 357.714 310.407 357.995C311.105 358.266 311.933 358.568 312.892 358.902C313.881 359.245 314.793 359.605 315.626 359.98C316.47 360.355 317.142 360.839 317.642 361.433C318.142 362.027 318.392 362.834 318.392 363.855ZM329.111 350.995C330.558 350.995 331.762 351.334 332.72 352.011C333.689 352.688 334.407 353.615 334.876 354.792C335.355 355.969 335.595 357.318 335.595 358.839V359.98H323.329C323.329 362.313 323.866 364.105 324.939 365.355C326.022 366.605 327.569 367.23 329.579 367.23C330.631 367.23 331.543 367.146 332.314 366.98C333.095 366.803 333.959 366.506 334.907 366.089V367.542C334.074 367.917 333.241 368.188 332.407 368.355C331.574 368.532 330.616 368.62 329.532 368.62C327.814 368.62 326.371 368.266 325.204 367.558C324.048 366.839 323.173 365.829 322.579 364.527C321.996 363.224 321.704 361.704 321.704 359.964C321.704 358.266 321.986 356.74 322.548 355.386C323.121 354.032 323.954 352.964 325.048 352.183C326.152 351.391 327.506 350.995 329.111 350.995ZM329.095 352.355C327.47 352.355 326.152 352.896 325.142 353.98C324.142 355.053 323.553 356.605 323.376 358.636H333.954C333.954 357.396 333.777 356.303 333.423 355.355C333.069 354.407 332.532 353.672 331.814 353.152C331.105 352.62 330.199 352.355 329.095 352.355ZM347.032 351.027C347.48 351.027 347.902 351.053 348.298 351.105C348.694 351.157 349.064 351.23 349.407 351.323L349.157 352.777C348.814 352.683 348.465 352.615 348.111 352.573C347.756 352.521 347.376 352.495 346.97 352.495C346.168 352.495 345.449 352.646 344.814 352.948C344.189 353.251 343.657 353.683 343.22 354.245C342.782 354.808 342.449 355.485 342.22 356.277C341.991 357.068 341.876 357.954 341.876 358.933V368.308H340.282V351.323H341.642L341.798 354.527H341.892C342.152 353.87 342.517 353.282 342.986 352.761C343.465 352.23 344.043 351.808 344.72 351.495C345.397 351.183 346.168 351.027 347.032 351.027ZM367.204 368.62C364.881 368.62 363.111 367.891 361.892 366.433C360.683 364.964 360.079 362.829 360.079 360.027C360.079 357.089 360.72 354.849 362.001 353.308C363.282 351.766 365.069 350.995 367.361 350.995C368.34 350.995 369.189 351.146 369.907 351.448C370.637 351.751 371.246 352.162 371.736 352.683C372.236 353.193 372.621 353.777 372.892 354.433H373.017C372.975 353.881 372.944 353.287 372.923 352.652C372.902 352.016 372.892 351.433 372.892 350.902V343.995H374.47V368.308H373.189L372.986 365.198H372.892C372.611 365.823 372.22 366.396 371.72 366.917C371.23 367.438 370.616 367.855 369.876 368.167C369.137 368.469 368.246 368.62 367.204 368.62ZM367.376 367.245C369.376 367.245 370.798 366.626 371.642 365.386C372.486 364.136 372.907 362.355 372.907 360.042V359.792C372.907 357.396 372.486 355.563 371.642 354.292C370.798 353.011 369.423 352.37 367.517 352.37C365.631 352.37 364.189 353.027 363.189 354.339C362.199 355.652 361.704 357.558 361.704 360.058C361.704 362.412 362.168 364.198 363.095 365.417C364.032 366.636 365.459 367.245 367.376 367.245ZM393.314 351.323V368.308H392.032L391.798 365.245H391.704C391.413 365.87 391.001 366.438 390.47 366.948C389.939 367.459 389.288 367.865 388.517 368.167C387.746 368.469 386.85 368.62 385.829 368.62C384.527 368.62 383.433 368.396 382.548 367.948C381.673 367.49 381.012 366.803 380.564 365.886C380.116 364.969 379.892 363.823 379.892 362.448V351.323H381.47V362.292C381.47 363.99 381.85 365.24 382.611 366.042C383.381 366.844 384.506 367.245 385.986 367.245C387.236 367.245 388.282 367.006 389.126 366.527C389.98 366.047 390.626 365.323 391.064 364.355C391.512 363.376 391.736 362.157 391.736 360.698V351.323H393.314ZM227.392 387.995V395.933C227.392 396.391 227.381 396.818 227.36 397.214C227.35 397.61 227.329 398.011 227.298 398.417H227.407C227.689 397.771 228.09 397.193 228.61 396.683C229.142 396.172 229.793 395.766 230.564 395.464C231.345 395.162 232.246 395.011 233.267 395.011C234.558 395.011 235.642 395.235 236.517 395.683C237.402 396.12 238.074 396.792 238.532 397.698C238.991 398.605 239.22 399.771 239.22 401.198V412.308H237.657V401.292C237.657 399.605 237.272 398.365 236.501 397.573C235.73 396.782 234.61 396.386 233.142 396.386C231.892 396.386 230.84 396.631 229.985 397.12C229.131 397.599 228.485 398.329 228.048 399.308C227.61 400.277 227.392 401.49 227.392 402.948V412.308H225.814V387.995H227.392ZM250.657 395.027C252.522 395.027 253.918 395.495 254.845 396.433C255.772 397.37 256.235 398.865 256.235 400.917V412.308H255.017L254.735 409.339H254.642C254.277 409.974 253.834 410.542 253.314 411.042C252.793 411.532 252.152 411.917 251.392 412.198C250.642 412.48 249.725 412.62 248.642 412.62C247.548 412.62 246.61 412.438 245.829 412.073C245.058 411.709 244.459 411.178 244.032 410.48C243.616 409.782 243.407 408.933 243.407 407.933C243.407 406.245 244.105 404.964 245.501 404.089C246.897 403.204 248.902 402.704 251.517 402.589L254.673 402.433V401.198C254.673 399.459 254.329 398.219 253.642 397.48C252.954 396.74 251.939 396.37 250.595 396.37C249.72 396.37 248.876 396.485 248.064 396.714C247.262 396.933 246.444 397.251 245.61 397.667L245.11 396.355C245.923 395.969 246.793 395.652 247.72 395.402C248.657 395.152 249.637 395.027 250.657 395.027ZM254.657 403.667L251.689 403.792C249.532 403.896 247.892 404.282 246.767 404.948C245.642 405.615 245.079 406.615 245.079 407.948C245.079 409.021 245.413 409.844 246.079 410.417C246.756 410.99 247.694 411.277 248.892 411.277C250.756 411.277 252.178 410.745 253.157 409.683C254.147 408.62 254.647 407.172 254.657 405.339V403.667ZM269.173 394.995C271.079 394.995 272.543 395.495 273.564 396.495C274.584 397.495 275.095 399.063 275.095 401.198V412.308H273.532V401.292C273.532 399.605 273.147 398.365 272.376 397.573C271.605 396.782 270.485 396.386 269.017 396.386C267.152 396.386 265.725 396.933 264.735 398.027C263.756 399.11 263.267 400.751 263.267 402.948V412.308H261.689V395.323H262.97L263.204 398.417H263.298C263.6 397.782 264.012 397.209 264.532 396.698C265.064 396.178 265.715 395.766 266.485 395.464C267.256 395.152 268.152 394.995 269.173 394.995ZM291.22 407.855C291.22 408.865 290.965 409.73 290.454 410.448C289.954 411.157 289.22 411.698 288.251 412.073C287.282 412.438 286.09 412.62 284.673 412.62C283.496 412.62 282.444 412.516 281.517 412.308C280.59 412.099 279.814 411.844 279.189 411.542V409.98C279.97 410.365 280.834 410.678 281.782 410.917C282.73 411.157 283.704 411.277 284.704 411.277C286.454 411.277 287.715 410.98 288.485 410.386C289.256 409.792 289.642 408.98 289.642 407.948C289.642 407.271 289.449 406.714 289.064 406.277C288.689 405.829 288.147 405.443 287.439 405.12C286.73 404.797 285.876 404.469 284.876 404.136C283.834 403.782 282.907 403.433 282.095 403.089C281.293 402.735 280.663 402.271 280.204 401.698C279.746 401.115 279.517 400.323 279.517 399.323C279.517 397.959 280.064 396.896 281.157 396.136C282.251 395.376 283.72 394.995 285.564 394.995C286.584 394.995 287.532 395.094 288.407 395.292C289.293 395.48 290.095 395.724 290.814 396.027L290.251 397.37C289.605 397.068 288.86 396.823 288.017 396.636C287.173 396.448 286.329 396.355 285.485 396.355C284.1 396.355 283.017 396.599 282.235 397.089C281.454 397.579 281.064 398.297 281.064 399.245C281.064 399.974 281.251 400.547 281.626 400.964C282.001 401.37 282.538 401.714 283.235 401.995C283.933 402.266 284.762 402.568 285.72 402.902C286.709 403.245 287.621 403.605 288.454 403.98C289.298 404.355 289.97 404.839 290.47 405.433C290.97 406.027 291.22 406.834 291.22 407.855ZM310.142 396.636H306.142V412.308H304.564V396.636H301.407V395.698L304.564 395.292V393.417C304.564 392.167 304.741 391.131 305.095 390.308C305.459 389.474 306.006 388.855 306.735 388.448C307.475 388.032 308.407 387.823 309.532 387.823C310.116 387.823 310.642 387.87 311.11 387.964C311.579 388.047 312.017 388.157 312.423 388.292L312.064 389.62C311.699 389.495 311.293 389.391 310.845 389.308C310.407 389.224 309.975 389.183 309.548 389.183C308.35 389.183 307.48 389.516 306.939 390.183C306.407 390.839 306.142 391.912 306.142 393.402V395.323H310.142V396.636ZM327.532 403.792C327.532 405.105 327.371 406.303 327.048 407.386C326.725 408.459 326.246 409.386 325.611 410.167C324.975 410.948 324.183 411.553 323.236 411.98C322.298 412.407 321.204 412.62 319.954 412.62C318.767 412.62 317.709 412.412 316.782 411.995C315.855 411.568 315.069 410.964 314.423 410.183C313.788 409.402 313.303 408.474 312.97 407.402C312.637 406.318 312.47 405.115 312.47 403.792C312.47 401.969 312.772 400.402 313.376 399.089C313.991 397.766 314.866 396.756 316.001 396.058C317.147 395.349 318.517 394.995 320.111 394.995C321.756 394.995 323.126 395.37 324.22 396.12C325.324 396.86 326.152 397.891 326.704 399.214C327.256 400.537 327.532 402.063 327.532 403.792ZM314.095 403.792C314.095 405.282 314.308 406.584 314.736 407.698C315.163 408.813 315.808 409.683 316.673 410.308C317.548 410.933 318.652 411.245 319.986 411.245C321.35 411.245 322.47 410.933 323.345 410.308C324.22 409.683 324.866 408.808 325.282 407.683C325.699 406.558 325.907 405.261 325.907 403.792C325.907 402.365 325.709 401.094 325.314 399.98C324.918 398.865 324.293 397.99 323.439 397.355C322.584 396.709 321.47 396.386 320.095 396.386C318.126 396.386 316.631 397.042 315.611 398.355C314.6 399.667 314.095 401.48 314.095 403.792ZM336.814 411.261C337.303 411.261 337.756 411.224 338.173 411.152C338.6 411.079 338.975 410.985 339.298 410.87V412.183C338.965 412.297 338.574 412.396 338.126 412.48C337.678 412.573 337.183 412.62 336.642 412.62C335.683 412.62 334.887 412.443 334.251 412.089C333.616 411.724 333.137 411.178 332.814 410.448C332.491 409.709 332.329 408.771 332.329 407.636V396.636H329.798V395.698L332.314 395.214L332.861 391.214H333.907V395.323H339.204V396.636H333.907V407.542C333.907 408.761 334.131 409.688 334.579 410.323C335.038 410.948 335.782 411.261 336.814 411.261ZM357.032 403.792C357.032 405.105 356.871 406.303 356.548 407.386C356.225 408.459 355.746 409.386 355.111 410.167C354.475 410.948 353.683 411.553 352.736 411.98C351.798 412.407 350.704 412.62 349.454 412.62C348.267 412.62 347.209 412.412 346.282 411.995C345.355 411.568 344.569 410.964 343.923 410.183C343.288 409.402 342.803 408.474 342.47 407.402C342.137 406.318 341.97 405.115 341.97 403.792C341.97 401.969 342.272 400.402 342.876 399.089C343.491 397.766 344.366 396.756 345.501 396.058C346.647 395.349 348.017 394.995 349.611 394.995C351.256 394.995 352.626 395.37 353.72 396.12C354.824 396.86 355.652 397.891 356.204 399.214C356.756 400.537 357.032 402.063 357.032 403.792ZM343.595 403.792C343.595 405.282 343.808 406.584 344.236 407.698C344.663 408.813 345.308 409.683 346.173 410.308C347.048 410.933 348.152 411.245 349.486 411.245C350.85 411.245 351.97 410.933 352.845 410.308C353.72 409.683 354.366 408.808 354.782 407.683C355.199 406.558 355.407 405.261 355.407 403.792C355.407 402.365 355.209 401.094 354.814 399.98C354.418 398.865 353.793 397.99 352.939 397.355C352.084 396.709 350.97 396.386 349.595 396.386C347.626 396.386 346.131 397.042 345.111 398.355C344.1 399.667 343.595 401.48 343.595 403.792ZM372.345 407.855C372.345 408.865 372.09 409.73 371.579 410.448C371.079 411.157 370.345 411.698 369.376 412.073C368.407 412.438 367.215 412.62 365.798 412.62C364.621 412.62 363.569 412.516 362.642 412.308C361.715 412.099 360.939 411.844 360.314 411.542V409.98C361.095 410.365 361.959 410.678 362.907 410.917C363.855 411.157 364.829 411.277 365.829 411.277C367.579 411.277 368.84 410.98 369.611 410.386C370.381 409.792 370.767 408.98 370.767 407.948C370.767 407.271 370.574 406.714 370.189 406.277C369.814 405.829 369.272 405.443 368.564 405.12C367.855 404.797 367.001 404.469 366.001 404.136C364.959 403.782 364.032 403.433 363.22 403.089C362.418 402.735 361.788 402.271 361.329 401.698C360.871 401.115 360.642 400.323 360.642 399.323C360.642 397.959 361.189 396.896 362.282 396.136C363.376 395.376 364.845 394.995 366.689 394.995C367.709 394.995 368.657 395.094 369.532 395.292C370.418 395.48 371.22 395.724 371.939 396.027L371.376 397.37C370.73 397.068 369.986 396.823 369.142 396.636C368.298 396.448 367.454 396.355 366.611 396.355C365.225 396.355 364.142 396.599 363.361 397.089C362.579 397.579 362.189 398.297 362.189 399.245C362.189 399.974 362.376 400.547 362.751 400.964C363.126 401.37 363.663 401.714 364.361 401.995C365.058 402.266 365.887 402.568 366.845 402.902C367.834 403.245 368.746 403.605 369.579 403.98C370.423 404.355 371.095 404.839 371.595 405.433C372.095 406.027 372.345 406.834 372.345 407.855Z" fill="white"/>
</svg>
