<svg width="596" height="596" viewBox="0 0 596 596" fill="none" xmlns="http://www.w3.org/2000/svg">
<circle cx="298" cy="298" r="219.044" stroke="#E0CDE5" stroke-width="3"/>
<circle cx="298" cy="298" r="297.5" stroke="#E0CDE5"/>
<circle cx="298" cy="298" r="204.553" stroke="#E0CDE5"/>
<path d="M318.72 227.308H268.985V215.12L285.72 198.198C289.189 194.573 291.876 191.667 293.782 189.48C295.72 187.292 297.079 185.433 297.86 183.902C298.642 182.37 299.032 180.777 299.032 179.12C299.032 177.089 298.376 175.62 297.064 174.714C295.751 173.808 294.204 173.355 292.423 173.355C290.267 173.355 288.079 173.98 285.86 175.23C283.673 176.448 281.189 178.261 278.407 180.667L268.235 168.761C270.298 166.917 272.485 165.167 274.798 163.511C277.11 161.823 279.845 160.448 283.001 159.386C286.157 158.323 290.001 157.792 294.532 157.792C299.189 157.792 303.22 158.605 306.626 160.23C310.064 161.855 312.72 164.089 314.595 166.933C316.47 169.745 317.407 172.948 317.407 176.542C317.407 180.511 316.673 184.058 315.204 187.183C313.767 190.277 311.595 193.386 308.689 196.511C305.782 199.605 302.157 203.12 297.814 207.058L292.798 211.558V212.027H318.72V227.308ZM236.329 259.777H244.72V270.261C243.626 270.719 242.459 271.063 241.22 271.292C239.98 271.511 238.663 271.62 237.267 271.62C234.84 271.62 232.793 271.162 231.126 270.245C229.47 269.318 228.215 267.98 227.36 266.23C226.506 264.48 226.079 262.376 226.079 259.917C226.079 257.626 226.543 255.589 227.47 253.808C228.407 252.027 229.746 250.631 231.485 249.62C233.225 248.61 235.308 248.105 237.735 248.105C238.985 248.105 240.163 248.219 241.267 248.448C242.381 248.678 243.439 249.021 244.439 249.48L243.798 250.917C242.808 250.459 241.798 250.115 240.767 249.886C239.746 249.657 238.709 249.542 237.657 249.542C235.595 249.542 233.819 249.985 232.329 250.87C230.85 251.745 229.715 252.964 228.923 254.527C228.142 256.079 227.751 257.87 227.751 259.902C227.751 262.204 228.131 264.115 228.892 265.636C229.652 267.157 230.762 268.297 232.22 269.058C233.689 269.818 235.47 270.198 237.564 270.198C238.709 270.198 239.735 270.115 240.642 269.948C241.558 269.782 242.387 269.563 243.126 269.292V261.245H236.329V259.777ZM256.001 254.027C257.866 254.027 259.262 254.495 260.189 255.433C261.116 256.37 261.579 257.865 261.579 259.917V271.308H260.36L260.079 268.339H259.985C259.621 268.974 259.178 269.542 258.657 270.042C258.137 270.532 257.496 270.917 256.735 271.198C255.985 271.48 255.069 271.62 253.985 271.62C252.892 271.62 251.954 271.438 251.173 271.073C250.402 270.709 249.803 270.178 249.376 269.48C248.959 268.782 248.751 267.933 248.751 266.933C248.751 265.245 249.449 263.964 250.845 263.089C252.241 262.204 254.246 261.704 256.86 261.589L260.017 261.433V260.198C260.017 258.459 259.673 257.219 258.985 256.48C258.298 255.74 257.282 255.37 255.939 255.37C255.064 255.37 254.22 255.485 253.407 255.714C252.605 255.933 251.788 256.251 250.954 256.667L250.454 255.355C251.267 254.969 252.137 254.652 253.064 254.402C254.001 254.152 254.98 254.027 256.001 254.027ZM260.001 262.667L257.032 262.792C254.876 262.896 253.235 263.282 252.11 263.948C250.985 264.615 250.423 265.615 250.423 266.948C250.423 268.021 250.756 268.844 251.423 269.417C252.1 269.99 253.038 270.277 254.235 270.277C256.1 270.277 257.522 269.745 258.501 268.683C259.491 267.62 259.991 266.172 260.001 264.339V262.667ZM274.517 253.995C276.423 253.995 277.887 254.495 278.907 255.495C279.928 256.495 280.439 258.063 280.439 260.198V271.308H278.876V260.292C278.876 258.605 278.491 257.365 277.72 256.573C276.949 255.782 275.829 255.386 274.36 255.386C272.496 255.386 271.069 255.933 270.079 257.027C269.1 258.11 268.61 259.751 268.61 261.948V271.308H267.032V254.323H268.314L268.548 257.417H268.642C268.944 256.782 269.355 256.209 269.876 255.698C270.407 255.178 271.058 254.766 271.829 254.464C272.6 254.152 273.496 253.995 274.517 253.995ZM290.439 278.995C288.303 278.995 286.642 278.584 285.454 277.761C284.277 276.938 283.689 275.787 283.689 274.308C283.689 273.162 284.048 272.172 284.767 271.339C285.485 270.516 286.459 270.021 287.689 269.855C287.199 269.626 286.798 269.313 286.485 268.917C286.183 268.521 286.032 268.063 286.032 267.542C286.032 266.959 286.215 266.417 286.579 265.917C286.944 265.407 287.491 264.938 288.22 264.511C287.241 264.157 286.47 263.558 285.907 262.714C285.345 261.86 285.064 260.834 285.064 259.636C285.064 258.49 285.308 257.495 285.798 256.652C286.288 255.808 286.98 255.157 287.876 254.698C288.782 254.23 289.85 253.995 291.079 253.995C291.454 253.995 291.793 254.006 292.095 254.027C292.407 254.047 292.694 254.084 292.954 254.136C293.215 254.178 293.449 254.235 293.657 254.308H299.142V255.433L295.642 255.667C296.1 256.219 296.444 256.818 296.673 257.464C296.902 258.099 297.017 258.771 297.017 259.48C297.017 261.167 296.485 262.506 295.423 263.495C294.36 264.485 292.881 264.98 290.985 264.98C290.465 264.98 289.954 264.933 289.454 264.839C288.819 265.214 288.334 265.594 288.001 265.98C287.668 266.355 287.501 266.823 287.501 267.386C287.501 267.74 287.605 268.032 287.814 268.261C288.022 268.48 288.324 268.652 288.72 268.777C289.116 268.891 289.6 268.948 290.173 268.948H293.157C295.001 268.948 296.413 269.323 297.392 270.073C298.371 270.823 298.86 271.928 298.86 273.386C298.86 275.167 298.126 276.547 296.657 277.527C295.199 278.506 293.126 278.995 290.439 278.995ZM290.548 277.667C292.038 277.667 293.277 277.506 294.267 277.183C295.267 276.86 296.017 276.381 296.517 275.745C297.017 275.12 297.267 274.344 297.267 273.417C297.267 272.657 297.084 272.068 296.72 271.652C296.355 271.235 295.84 270.948 295.173 270.792C294.506 270.626 293.72 270.542 292.814 270.542H289.97C289.064 270.542 288.256 270.667 287.548 270.917C286.84 271.157 286.288 271.542 285.892 272.073C285.506 272.605 285.314 273.313 285.314 274.198C285.314 275.334 285.756 276.193 286.642 276.777C287.538 277.37 288.84 277.667 290.548 277.667ZM291.048 263.714C292.454 263.714 293.532 263.36 294.282 262.652C295.032 261.943 295.407 260.917 295.407 259.573C295.407 258.136 295.022 257.058 294.251 256.339C293.48 255.62 292.402 255.261 291.017 255.261C289.673 255.261 288.616 255.646 287.845 256.417C287.084 257.178 286.704 258.251 286.704 259.636C286.704 260.928 287.069 261.933 287.798 262.652C288.527 263.36 289.61 263.714 291.048 263.714ZM309.001 253.995C310.449 253.995 311.652 254.334 312.61 255.011C313.579 255.688 314.298 256.615 314.767 257.792C315.246 258.969 315.485 260.318 315.485 261.839V262.98H303.22C303.22 265.313 303.756 267.105 304.829 268.355C305.913 269.605 307.459 270.23 309.47 270.23C310.522 270.23 311.433 270.146 312.204 269.98C312.985 269.803 313.85 269.506 314.798 269.089V270.542C313.965 270.917 313.131 271.188 312.298 271.355C311.465 271.532 310.506 271.62 309.423 271.62C307.704 271.62 306.262 271.266 305.095 270.558C303.939 269.839 303.064 268.829 302.47 267.527C301.887 266.224 301.595 264.704 301.595 262.964C301.595 261.266 301.876 259.74 302.439 258.386C303.012 257.032 303.845 255.964 304.939 255.183C306.043 254.391 307.397 253.995 309.001 253.995ZM308.985 255.355C307.36 255.355 306.043 255.896 305.032 256.98C304.032 258.053 303.444 259.605 303.267 261.636H313.845C313.845 260.396 313.668 259.303 313.314 258.355C312.959 257.407 312.423 256.672 311.704 256.152C310.996 255.62 310.09 255.355 308.985 255.355ZM342.564 262.792C342.564 264.105 342.402 265.303 342.079 266.386C341.756 267.459 341.277 268.386 340.642 269.167C340.006 269.948 339.215 270.553 338.267 270.98C337.329 271.407 336.236 271.62 334.986 271.62C333.798 271.62 332.741 271.412 331.814 270.995C330.887 270.568 330.1 269.964 329.454 269.183C328.819 268.402 328.334 267.474 328.001 266.402C327.668 265.318 327.501 264.115 327.501 262.792C327.501 260.969 327.803 259.402 328.407 258.089C329.022 256.766 329.897 255.756 331.032 255.058C332.178 254.349 333.548 253.995 335.142 253.995C336.788 253.995 338.157 254.37 339.251 255.12C340.355 255.86 341.183 256.891 341.736 258.214C342.288 259.537 342.564 261.063 342.564 262.792ZM329.126 262.792C329.126 264.282 329.34 265.584 329.767 266.698C330.194 267.813 330.84 268.683 331.704 269.308C332.579 269.933 333.683 270.245 335.017 270.245C336.381 270.245 337.501 269.933 338.376 269.308C339.251 268.683 339.897 267.808 340.314 266.683C340.73 265.558 340.939 264.261 340.939 262.792C340.939 261.365 340.741 260.094 340.345 258.98C339.949 257.865 339.324 256.99 338.47 256.355C337.616 255.709 336.501 255.386 335.126 255.386C333.157 255.386 331.663 256.042 330.642 257.355C329.631 258.667 329.126 260.48 329.126 262.792ZM364.782 253.995C366.418 253.995 367.709 254.469 368.657 255.417C369.605 256.365 370.079 257.86 370.079 259.902V271.308H368.532V259.964C368.532 258.391 368.173 257.235 367.454 256.495C366.736 255.756 365.788 255.386 364.611 255.386C362.996 255.386 361.73 255.86 360.814 256.808C359.907 257.745 359.454 259.224 359.454 261.245V271.308H357.892V259.964C357.892 258.912 357.725 258.053 357.392 257.386C357.069 256.709 356.616 256.209 356.032 255.886C355.449 255.553 354.762 255.386 353.97 255.386C352.918 255.386 352.006 255.605 351.236 256.042C350.465 256.469 349.871 257.136 349.454 258.042C349.038 258.938 348.829 260.079 348.829 261.464V271.308H347.251V254.323H348.532L348.767 257.105H348.861C349.142 256.553 349.517 256.042 349.986 255.573C350.454 255.105 351.032 254.724 351.72 254.433C352.418 254.141 353.236 253.995 354.173 253.995C355.392 253.995 356.423 254.271 357.267 254.823C358.121 255.365 358.715 256.172 359.048 257.245H359.157C359.616 256.224 360.324 255.428 361.282 254.855C362.251 254.282 363.418 253.995 364.782 253.995ZM209.579 315.62C207.256 315.62 205.485 314.891 204.267 313.433C203.058 311.964 202.454 309.829 202.454 307.027C202.454 304.089 203.095 301.849 204.376 300.308C205.657 298.766 207.444 297.995 209.735 297.995C210.715 297.995 211.564 298.146 212.282 298.448C213.012 298.751 213.621 299.162 214.11 299.683C214.61 300.193 214.996 300.777 215.267 301.433H215.392C215.35 300.881 215.319 300.287 215.298 299.652C215.277 299.016 215.267 298.433 215.267 297.902V290.995H216.845V315.308H215.564L215.36 312.198H215.267C214.985 312.823 214.595 313.396 214.095 313.917C213.605 314.438 212.991 314.855 212.251 315.167C211.512 315.469 210.621 315.62 209.579 315.62ZM209.751 314.245C211.751 314.245 213.173 313.626 214.017 312.386C214.86 311.136 215.282 309.355 215.282 307.042V306.792C215.282 304.396 214.86 302.563 214.017 301.292C213.173 300.011 211.798 299.37 209.892 299.37C208.006 299.37 206.564 300.027 205.564 301.339C204.574 302.652 204.079 304.558 204.079 307.058C204.079 309.412 204.543 311.198 205.47 312.417C206.407 313.636 207.834 314.245 209.751 314.245ZM228.423 298.027C230.288 298.027 231.683 298.495 232.61 299.433C233.538 300.37 234.001 301.865 234.001 303.917V315.308H232.782L232.501 312.339H232.407C232.043 312.974 231.6 313.542 231.079 314.042C230.558 314.532 229.918 314.917 229.157 315.198C228.407 315.48 227.491 315.62 226.407 315.62C225.314 315.62 224.376 315.438 223.595 315.073C222.824 314.709 222.225 314.178 221.798 313.48C221.381 312.782 221.173 311.933 221.173 310.933C221.173 309.245 221.871 307.964 223.267 307.089C224.663 306.204 226.668 305.704 229.282 305.589L232.439 305.433V304.198C232.439 302.459 232.095 301.219 231.407 300.48C230.72 299.74 229.704 299.37 228.36 299.37C227.485 299.37 226.642 299.485 225.829 299.714C225.027 299.933 224.209 300.251 223.376 300.667L222.876 299.355C223.689 298.969 224.558 298.652 225.485 298.402C226.423 298.152 227.402 298.027 228.423 298.027ZM232.423 306.667L229.454 306.792C227.298 306.896 225.657 307.282 224.532 307.948C223.407 308.615 222.845 309.615 222.845 310.948C222.845 312.021 223.178 312.844 223.845 313.417C224.522 313.99 225.459 314.277 226.657 314.277C228.522 314.277 229.944 313.745 230.923 312.683C231.913 311.62 232.413 310.172 232.423 308.339V306.667ZM243.954 322.995C241.819 322.995 240.157 322.584 238.97 321.761C237.793 320.938 237.204 319.787 237.204 318.308C237.204 317.162 237.564 316.172 238.282 315.339C239.001 314.516 239.975 314.021 241.204 313.855C240.715 313.626 240.314 313.313 240.001 312.917C239.699 312.521 239.548 312.063 239.548 311.542C239.548 310.959 239.73 310.417 240.095 309.917C240.459 309.407 241.006 308.938 241.735 308.511C240.756 308.157 239.985 307.558 239.423 306.714C238.86 305.86 238.579 304.834 238.579 303.636C238.579 302.49 238.824 301.495 239.314 300.652C239.803 299.808 240.496 299.157 241.392 298.698C242.298 298.23 243.366 297.995 244.595 297.995C244.97 297.995 245.308 298.006 245.61 298.027C245.923 298.047 246.209 298.084 246.47 298.136C246.73 298.178 246.965 298.235 247.173 298.308H252.657V299.433L249.157 299.667C249.616 300.219 249.959 300.818 250.189 301.464C250.418 302.099 250.532 302.771 250.532 303.48C250.532 305.167 250.001 306.506 248.939 307.495C247.876 308.485 246.397 308.98 244.501 308.98C243.98 308.98 243.47 308.933 242.97 308.839C242.334 309.214 241.85 309.594 241.517 309.98C241.183 310.355 241.017 310.823 241.017 311.386C241.017 311.74 241.121 312.032 241.329 312.261C241.538 312.48 241.84 312.652 242.235 312.777C242.631 312.891 243.116 312.948 243.689 312.948H246.673C248.517 312.948 249.928 313.323 250.907 314.073C251.887 314.823 252.376 315.928 252.376 317.386C252.376 319.167 251.642 320.547 250.173 321.527C248.715 322.506 246.642 322.995 243.954 322.995ZM244.064 321.667C245.553 321.667 246.793 321.506 247.782 321.183C248.782 320.86 249.532 320.381 250.032 319.745C250.532 319.12 250.782 318.344 250.782 317.417C250.782 316.657 250.6 316.068 250.235 315.652C249.871 315.235 249.355 314.948 248.689 314.792C248.022 314.626 247.235 314.542 246.329 314.542H243.485C242.579 314.542 241.772 314.667 241.064 314.917C240.355 315.157 239.803 315.542 239.407 316.073C239.022 316.605 238.829 317.313 238.829 318.198C238.829 319.334 239.272 320.193 240.157 320.777C241.053 321.37 242.355 321.667 244.064 321.667ZM244.564 307.714C245.97 307.714 247.048 307.36 247.798 306.652C248.548 305.943 248.923 304.917 248.923 303.573C248.923 302.136 248.538 301.058 247.767 300.339C246.996 299.62 245.918 299.261 244.532 299.261C243.189 299.261 242.131 299.646 241.36 300.417C240.6 301.178 240.22 302.251 240.22 303.636C240.22 304.928 240.584 305.933 241.314 306.652C242.043 307.36 243.126 307.714 244.564 307.714ZM262.517 297.995C263.965 297.995 265.168 298.334 266.126 299.011C267.095 299.688 267.814 300.615 268.282 301.792C268.762 302.969 269.001 304.318 269.001 305.839V306.98H256.735C256.735 309.313 257.272 311.105 258.345 312.355C259.428 313.605 260.975 314.23 262.985 314.23C264.038 314.23 264.949 314.146 265.72 313.98C266.501 313.803 267.366 313.506 268.314 313.089V314.542C267.48 314.917 266.647 315.188 265.814 315.355C264.98 315.532 264.022 315.62 262.939 315.62C261.22 315.62 259.777 315.266 258.61 314.558C257.454 313.839 256.579 312.829 255.985 311.527C255.402 310.224 255.11 308.704 255.11 306.964C255.11 305.266 255.392 303.74 255.954 302.386C256.527 301.032 257.36 299.964 258.454 299.183C259.558 298.391 260.913 297.995 262.517 297.995ZM262.501 299.355C260.876 299.355 259.558 299.896 258.548 300.98C257.548 302.053 256.959 303.605 256.782 305.636H267.36C267.36 304.396 267.183 303.303 266.829 302.355C266.475 301.407 265.939 300.672 265.22 300.152C264.512 299.62 263.605 299.355 262.501 299.355ZM281.157 297.995C283.064 297.995 284.527 298.495 285.548 299.495C286.569 300.495 287.079 302.063 287.079 304.198V315.308H285.517V304.292C285.517 302.605 285.131 301.365 284.36 300.573C283.59 299.782 282.47 299.386 281.001 299.386C279.137 299.386 277.709 299.933 276.72 301.027C275.741 302.11 275.251 303.751 275.251 305.948V315.308H273.673V298.323H274.954L275.189 301.417H275.282C275.584 300.782 275.996 300.209 276.517 299.698C277.048 299.178 277.699 298.766 278.47 298.464C279.241 298.152 280.137 297.995 281.157 297.995ZM294.423 311.589L294.564 311.964C294.397 312.745 294.189 313.568 293.939 314.433C293.699 315.297 293.433 316.157 293.142 317.011C292.86 317.876 292.558 318.683 292.235 319.433H291.017C291.288 318.485 291.532 317.558 291.751 316.652C291.97 315.756 292.163 314.886 292.329 314.042C292.496 313.188 292.631 312.37 292.735 311.589H294.423ZM318.392 310.855C318.392 311.865 318.137 312.73 317.626 313.448C317.126 314.157 316.392 314.698 315.423 315.073C314.454 315.438 313.262 315.62 311.845 315.62C310.668 315.62 309.616 315.516 308.689 315.308C307.762 315.099 306.985 314.844 306.36 314.542V312.98C307.142 313.365 308.006 313.678 308.954 313.917C309.902 314.157 310.876 314.277 311.876 314.277C313.626 314.277 314.887 313.98 315.657 313.386C316.428 312.792 316.814 311.98 316.814 310.948C316.814 310.271 316.621 309.714 316.235 309.277C315.86 308.829 315.319 308.443 314.61 308.12C313.902 307.797 313.048 307.469 312.048 307.136C311.006 306.782 310.079 306.433 309.267 306.089C308.465 305.735 307.834 305.271 307.376 304.698C306.918 304.115 306.689 303.323 306.689 302.323C306.689 300.959 307.235 299.896 308.329 299.136C309.423 298.376 310.892 297.995 312.735 297.995C313.756 297.995 314.704 298.094 315.579 298.292C316.465 298.48 317.267 298.724 317.985 299.027L317.423 300.37C316.777 300.068 316.032 299.823 315.189 299.636C314.345 299.448 313.501 299.355 312.657 299.355C311.272 299.355 310.189 299.599 309.407 300.089C308.626 300.579 308.235 301.297 308.235 302.245C308.235 302.974 308.423 303.547 308.798 303.964C309.173 304.37 309.709 304.714 310.407 304.995C311.105 305.266 311.933 305.568 312.892 305.902C313.881 306.245 314.793 306.605 315.626 306.98C316.47 307.355 317.142 307.839 317.642 308.433C318.142 309.027 318.392 309.834 318.392 310.855ZM329.111 297.995C330.558 297.995 331.762 298.334 332.72 299.011C333.689 299.688 334.407 300.615 334.876 301.792C335.355 302.969 335.595 304.318 335.595 305.839V306.98H323.329C323.329 309.313 323.866 311.105 324.939 312.355C326.022 313.605 327.569 314.23 329.579 314.23C330.631 314.23 331.543 314.146 332.314 313.98C333.095 313.803 333.959 313.506 334.907 313.089V314.542C334.074 314.917 333.241 315.188 332.407 315.355C331.574 315.532 330.616 315.62 329.532 315.62C327.814 315.62 326.371 315.266 325.204 314.558C324.048 313.839 323.173 312.829 322.579 311.527C321.996 310.224 321.704 308.704 321.704 306.964C321.704 305.266 321.986 303.74 322.548 302.386C323.121 301.032 323.954 299.964 325.048 299.183C326.152 298.391 327.506 297.995 329.111 297.995ZM329.095 299.355C327.47 299.355 326.152 299.896 325.142 300.98C324.142 302.053 323.553 303.605 323.376 305.636H333.954C333.954 304.396 333.777 303.303 333.423 302.355C333.069 301.407 332.532 300.672 331.814 300.152C331.105 299.62 330.199 299.355 329.095 299.355ZM347.032 298.027C347.48 298.027 347.902 298.053 348.298 298.105C348.694 298.157 349.064 298.23 349.407 298.323L349.157 299.777C348.814 299.683 348.465 299.615 348.111 299.573C347.756 299.521 347.376 299.495 346.97 299.495C346.168 299.495 345.449 299.646 344.814 299.948C344.189 300.251 343.657 300.683 343.22 301.245C342.782 301.808 342.449 302.485 342.22 303.277C341.991 304.068 341.876 304.954 341.876 305.933V315.308H340.282V298.323H341.642L341.798 301.527H341.892C342.152 300.87 342.517 300.282 342.986 299.761C343.465 299.23 344.043 298.808 344.72 298.495C345.397 298.183 346.168 298.027 347.032 298.027ZM367.204 315.62C364.881 315.62 363.111 314.891 361.892 313.433C360.683 311.964 360.079 309.829 360.079 307.027C360.079 304.089 360.72 301.849 362.001 300.308C363.282 298.766 365.069 297.995 367.361 297.995C368.34 297.995 369.189 298.146 369.907 298.448C370.637 298.751 371.246 299.162 371.736 299.683C372.236 300.193 372.621 300.777 372.892 301.433H373.017C372.975 300.881 372.944 300.287 372.923 299.652C372.902 299.016 372.892 298.433 372.892 297.902V290.995H374.47V315.308H373.189L372.986 312.198H372.892C372.611 312.823 372.22 313.396 371.72 313.917C371.23 314.438 370.616 314.855 369.876 315.167C369.137 315.469 368.246 315.62 367.204 315.62ZM367.376 314.245C369.376 314.245 370.798 313.626 371.642 312.386C372.486 311.136 372.907 309.355 372.907 307.042V306.792C372.907 304.396 372.486 302.563 371.642 301.292C370.798 300.011 369.423 299.37 367.517 299.37C365.631 299.37 364.189 300.027 363.189 301.339C362.199 302.652 361.704 304.558 361.704 307.058C361.704 309.412 362.168 311.198 363.095 312.417C364.032 313.636 365.459 314.245 367.376 314.245ZM393.314 298.323V315.308H392.032L391.798 312.245H391.704C391.413 312.87 391.001 313.438 390.47 313.948C389.939 314.459 389.288 314.865 388.517 315.167C387.746 315.469 386.85 315.62 385.829 315.62C384.527 315.62 383.433 315.396 382.548 314.948C381.673 314.49 381.012 313.803 380.564 312.886C380.116 311.969 379.892 310.823 379.892 309.448V298.323H381.47V309.292C381.47 310.99 381.85 312.24 382.611 313.042C383.381 313.844 384.506 314.245 385.986 314.245C387.236 314.245 388.282 314.006 389.126 313.527C389.98 313.047 390.626 312.323 391.064 311.355C391.512 310.376 391.736 309.157 391.736 307.698V298.323H393.314ZM227.392 334.995V342.933C227.392 343.391 227.381 343.818 227.36 344.214C227.35 344.61 227.329 345.011 227.298 345.417H227.407C227.689 344.771 228.09 344.193 228.61 343.683C229.142 343.172 229.793 342.766 230.564 342.464C231.345 342.162 232.246 342.011 233.267 342.011C234.558 342.011 235.642 342.235 236.517 342.683C237.402 343.12 238.074 343.792 238.532 344.698C238.991 345.605 239.22 346.771 239.22 348.198V359.308H237.657V348.292C237.657 346.605 237.272 345.365 236.501 344.573C235.73 343.782 234.61 343.386 233.142 343.386C231.892 343.386 230.84 343.631 229.985 344.12C229.131 344.599 228.485 345.329 228.048 346.308C227.61 347.277 227.392 348.49 227.392 349.948V359.308H225.814V334.995H227.392ZM250.657 342.027C252.522 342.027 253.918 342.495 254.845 343.433C255.772 344.37 256.235 345.865 256.235 347.917V359.308H255.017L254.735 356.339H254.642C254.277 356.974 253.834 357.542 253.314 358.042C252.793 358.532 252.152 358.917 251.392 359.198C250.642 359.48 249.725 359.62 248.642 359.62C247.548 359.62 246.61 359.438 245.829 359.073C245.058 358.709 244.459 358.178 244.032 357.48C243.616 356.782 243.407 355.933 243.407 354.933C243.407 353.245 244.105 351.964 245.501 351.089C246.897 350.204 248.902 349.704 251.517 349.589L254.673 349.433V348.198C254.673 346.459 254.329 345.219 253.642 344.48C252.954 343.74 251.939 343.37 250.595 343.37C249.72 343.37 248.876 343.485 248.064 343.714C247.262 343.933 246.444 344.251 245.61 344.667L245.11 343.355C245.923 342.969 246.793 342.652 247.72 342.402C248.657 342.152 249.637 342.027 250.657 342.027ZM254.657 350.667L251.689 350.792C249.532 350.896 247.892 351.282 246.767 351.948C245.642 352.615 245.079 353.615 245.079 354.948C245.079 356.021 245.413 356.844 246.079 357.417C246.756 357.99 247.694 358.277 248.892 358.277C250.756 358.277 252.178 357.745 253.157 356.683C254.147 355.62 254.647 354.172 254.657 352.339V350.667ZM269.173 341.995C271.079 341.995 272.543 342.495 273.564 343.495C274.584 344.495 275.095 346.063 275.095 348.198V359.308H273.532V348.292C273.532 346.605 273.147 345.365 272.376 344.573C271.605 343.782 270.485 343.386 269.017 343.386C267.152 343.386 265.725 343.933 264.735 345.027C263.756 346.11 263.267 347.751 263.267 349.948V359.308H261.689V342.323H262.97L263.204 345.417H263.298C263.6 344.782 264.012 344.209 264.532 343.698C265.064 343.178 265.715 342.766 266.485 342.464C267.256 342.152 268.152 341.995 269.173 341.995ZM291.22 354.855C291.22 355.865 290.965 356.73 290.454 357.448C289.954 358.157 289.22 358.698 288.251 359.073C287.282 359.438 286.09 359.62 284.673 359.62C283.496 359.62 282.444 359.516 281.517 359.308C280.59 359.099 279.814 358.844 279.189 358.542V356.98C279.97 357.365 280.834 357.678 281.782 357.917C282.73 358.157 283.704 358.277 284.704 358.277C286.454 358.277 287.715 357.98 288.485 357.386C289.256 356.792 289.642 355.98 289.642 354.948C289.642 354.271 289.449 353.714 289.064 353.277C288.689 352.829 288.147 352.443 287.439 352.12C286.73 351.797 285.876 351.469 284.876 351.136C283.834 350.782 282.907 350.433 282.095 350.089C281.293 349.735 280.663 349.271 280.204 348.698C279.746 348.115 279.517 347.323 279.517 346.323C279.517 344.959 280.064 343.896 281.157 343.136C282.251 342.376 283.72 341.995 285.564 341.995C286.584 341.995 287.532 342.094 288.407 342.292C289.293 342.48 290.095 342.724 290.814 343.027L290.251 344.37C289.605 344.068 288.86 343.823 288.017 343.636C287.173 343.448 286.329 343.355 285.485 343.355C284.1 343.355 283.017 343.599 282.235 344.089C281.454 344.579 281.064 345.297 281.064 346.245C281.064 346.974 281.251 347.547 281.626 347.964C282.001 348.37 282.538 348.714 283.235 348.995C283.933 349.266 284.762 349.568 285.72 349.902C286.709 350.245 287.621 350.605 288.454 350.98C289.298 351.355 289.97 351.839 290.47 352.433C290.97 353.027 291.22 353.834 291.22 354.855ZM310.142 343.636H306.142V359.308H304.564V343.636H301.407V342.698L304.564 342.292V340.417C304.564 339.167 304.741 338.131 305.095 337.308C305.459 336.474 306.006 335.855 306.735 335.448C307.475 335.032 308.407 334.823 309.532 334.823C310.116 334.823 310.642 334.87 311.11 334.964C311.579 335.047 312.017 335.157 312.423 335.292L312.064 336.62C311.699 336.495 311.293 336.391 310.845 336.308C310.407 336.224 309.975 336.183 309.548 336.183C308.35 336.183 307.48 336.516 306.939 337.183C306.407 337.839 306.142 338.912 306.142 340.402V342.323H310.142V343.636ZM327.532 350.792C327.532 352.105 327.371 353.303 327.048 354.386C326.725 355.459 326.246 356.386 325.611 357.167C324.975 357.948 324.183 358.553 323.236 358.98C322.298 359.407 321.204 359.62 319.954 359.62C318.767 359.62 317.709 359.412 316.782 358.995C315.855 358.568 315.069 357.964 314.423 357.183C313.788 356.402 313.303 355.474 312.97 354.402C312.637 353.318 312.47 352.115 312.47 350.792C312.47 348.969 312.772 347.402 313.376 346.089C313.991 344.766 314.866 343.756 316.001 343.058C317.147 342.349 318.517 341.995 320.111 341.995C321.756 341.995 323.126 342.37 324.22 343.12C325.324 343.86 326.152 344.891 326.704 346.214C327.256 347.537 327.532 349.063 327.532 350.792ZM314.095 350.792C314.095 352.282 314.308 353.584 314.736 354.698C315.163 355.813 315.808 356.683 316.673 357.308C317.548 357.933 318.652 358.245 319.986 358.245C321.35 358.245 322.47 357.933 323.345 357.308C324.22 356.683 324.866 355.808 325.282 354.683C325.699 353.558 325.907 352.261 325.907 350.792C325.907 349.365 325.709 348.094 325.314 346.98C324.918 345.865 324.293 344.99 323.439 344.355C322.584 343.709 321.47 343.386 320.095 343.386C318.126 343.386 316.631 344.042 315.611 345.355C314.6 346.667 314.095 348.48 314.095 350.792ZM336.814 358.261C337.303 358.261 337.756 358.224 338.173 358.152C338.6 358.079 338.975 357.985 339.298 357.87V359.183C338.965 359.297 338.574 359.396 338.126 359.48C337.678 359.573 337.183 359.62 336.642 359.62C335.683 359.62 334.887 359.443 334.251 359.089C333.616 358.724 333.137 358.178 332.814 357.448C332.491 356.709 332.329 355.771 332.329 354.636V343.636H329.798V342.698L332.314 342.214L332.861 338.214H333.907V342.323H339.204V343.636H333.907V354.542C333.907 355.761 334.131 356.688 334.579 357.323C335.038 357.948 335.782 358.261 336.814 358.261ZM357.032 350.792C357.032 352.105 356.871 353.303 356.548 354.386C356.225 355.459 355.746 356.386 355.111 357.167C354.475 357.948 353.683 358.553 352.736 358.98C351.798 359.407 350.704 359.62 349.454 359.62C348.267 359.62 347.209 359.412 346.282 358.995C345.355 358.568 344.569 357.964 343.923 357.183C343.288 356.402 342.803 355.474 342.47 354.402C342.137 353.318 341.97 352.115 341.97 350.792C341.97 348.969 342.272 347.402 342.876 346.089C343.491 344.766 344.366 343.756 345.501 343.058C346.647 342.349 348.017 341.995 349.611 341.995C351.256 341.995 352.626 342.37 353.72 343.12C354.824 343.86 355.652 344.891 356.204 346.214C356.756 347.537 357.032 349.063 357.032 350.792ZM343.595 350.792C343.595 352.282 343.808 353.584 344.236 354.698C344.663 355.813 345.308 356.683 346.173 357.308C347.048 357.933 348.152 358.245 349.486 358.245C350.85 358.245 351.97 357.933 352.845 357.308C353.72 356.683 354.366 355.808 354.782 354.683C355.199 353.558 355.407 352.261 355.407 350.792C355.407 349.365 355.209 348.094 354.814 346.98C354.418 345.865 353.793 344.99 352.939 344.355C352.084 343.709 350.97 343.386 349.595 343.386C347.626 343.386 346.131 344.042 345.111 345.355C344.1 346.667 343.595 348.48 343.595 350.792ZM372.345 354.855C372.345 355.865 372.09 356.73 371.579 357.448C371.079 358.157 370.345 358.698 369.376 359.073C368.407 359.438 367.215 359.62 365.798 359.62C364.621 359.62 363.569 359.516 362.642 359.308C361.715 359.099 360.939 358.844 360.314 358.542V356.98C361.095 357.365 361.959 357.678 362.907 357.917C363.855 358.157 364.829 358.277 365.829 358.277C367.579 358.277 368.84 357.98 369.611 357.386C370.381 356.792 370.767 355.98 370.767 354.948C370.767 354.271 370.574 353.714 370.189 353.277C369.814 352.829 369.272 352.443 368.564 352.12C367.855 351.797 367.001 351.469 366.001 351.136C364.959 350.782 364.032 350.433 363.22 350.089C362.418 349.735 361.788 349.271 361.329 348.698C360.871 348.115 360.642 347.323 360.642 346.323C360.642 344.959 361.189 343.896 362.282 343.136C363.376 342.376 364.845 341.995 366.689 341.995C367.709 341.995 368.657 342.094 369.532 342.292C370.418 342.48 371.22 342.724 371.939 343.027L371.376 344.37C370.73 344.068 369.986 343.823 369.142 343.636C368.298 343.448 367.454 343.355 366.611 343.355C365.225 343.355 364.142 343.599 363.361 344.089C362.579 344.579 362.189 345.297 362.189 346.245C362.189 346.974 362.376 347.547 362.751 347.964C363.126 348.37 363.663 348.714 364.361 348.995C365.058 349.266 365.887 349.568 366.845 349.902C367.834 350.245 368.746 350.605 369.579 350.98C370.423 351.355 371.095 351.839 371.595 352.433C372.095 353.027 372.345 353.834 372.345 354.855Z" fill="white"/>
</svg>
