<svg width="518" height="488" viewBox="0 0 518 488" fill="none" xmlns="http://www.w3.org/2000/svg">
<circle cx="259" cy="244" r="171.679" stroke="#E0CDE5" stroke-width="3"/>
<circle cx="259" cy="244" r="233.5" stroke="#E0CDE5"/>
<circle cx="259" cy="244" r="160.515" stroke="#E0CDE5"/>
<path d="M265.851 203.933H253.32V181.339C253.32 180.923 253.32 180.162 253.32 179.058C253.32 177.933 253.33 176.693 253.351 175.339C253.393 173.985 253.445 172.766 253.507 171.683C252.966 172.329 252.455 172.881 251.976 173.339C251.518 173.798 251.07 174.225 250.632 174.62L245.445 178.902L239.039 171.027L254.726 158.245H265.851V203.933ZM191.398 247.933H189.789V225.089H202.289V226.542H191.398V236.277H201.695V237.714H191.398V247.933ZM219.57 239.417C219.57 240.73 219.408 241.928 219.085 243.011C218.763 244.084 218.283 245.011 217.648 245.792C217.013 246.574 216.221 247.178 215.273 247.605C214.335 248.032 213.242 248.245 211.992 248.245C210.804 248.245 209.747 248.037 208.82 247.62C207.893 247.193 207.106 246.589 206.46 245.808C205.825 245.027 205.341 244.1 205.007 243.027C204.674 241.943 204.507 240.74 204.507 239.417C204.507 237.594 204.809 236.027 205.414 234.714C206.028 233.391 206.903 232.381 208.039 231.683C209.184 230.975 210.554 230.62 212.148 230.62C213.794 230.62 215.164 230.995 216.257 231.745C217.362 232.485 218.19 233.516 218.742 234.839C219.294 236.162 219.57 237.688 219.57 239.417ZM206.132 239.417C206.132 240.907 206.346 242.209 206.773 243.324C207.2 244.438 207.846 245.308 208.71 245.933C209.585 246.558 210.69 246.87 212.023 246.87C213.388 246.87 214.507 246.558 215.382 245.933C216.257 245.308 216.903 244.433 217.32 243.308C217.737 242.183 217.945 240.886 217.945 239.417C217.945 237.99 217.747 236.719 217.351 235.605C216.955 234.49 216.33 233.615 215.476 232.98C214.622 232.334 213.507 232.011 212.132 232.011C210.164 232.011 208.669 232.667 207.648 233.98C206.638 235.292 206.132 237.105 206.132 239.417ZM228.851 246.886C229.341 246.886 229.794 246.85 230.21 246.777C230.638 246.704 231.013 246.61 231.335 246.495V247.808C231.002 247.923 230.612 248.022 230.164 248.105C229.716 248.199 229.221 248.245 228.679 248.245C227.721 248.245 226.924 248.068 226.289 247.714C225.653 247.35 225.174 246.803 224.851 246.074C224.528 245.334 224.367 244.397 224.367 243.261V232.261H221.835V231.324L224.351 230.839L224.898 226.839H225.945V230.949H231.242V232.261H225.945V243.167C225.945 244.386 226.169 245.313 226.617 245.949C227.075 246.574 227.82 246.886 228.851 246.886ZM249.07 239.417C249.07 240.73 248.908 241.928 248.585 243.011C248.263 244.084 247.783 245.011 247.148 245.792C246.513 246.574 245.721 247.178 244.773 247.605C243.835 248.032 242.742 248.245 241.492 248.245C240.304 248.245 239.247 248.037 238.32 247.62C237.393 247.193 236.606 246.589 235.96 245.808C235.325 245.027 234.841 244.1 234.507 243.027C234.174 241.943 234.007 240.74 234.007 239.417C234.007 237.594 234.309 236.027 234.914 234.714C235.528 233.391 236.403 232.381 237.539 231.683C238.684 230.975 240.054 230.62 241.648 230.62C243.294 230.62 244.664 230.995 245.757 231.745C246.862 232.485 247.69 233.516 248.242 234.839C248.794 236.162 249.07 237.688 249.07 239.417ZM235.632 239.417C235.632 240.907 235.846 242.209 236.273 243.324C236.7 244.438 237.346 245.308 238.21 245.933C239.085 246.558 240.19 246.87 241.523 246.87C242.888 246.87 244.007 246.558 244.882 245.933C245.757 245.308 246.403 244.433 246.82 243.308C247.237 242.183 247.445 240.886 247.445 239.417C247.445 237.99 247.247 236.719 246.851 235.605C246.455 234.49 245.83 233.615 244.976 232.98C244.122 232.334 243.007 232.011 241.632 232.011C239.664 232.011 238.169 232.667 237.148 233.98C236.138 235.292 235.632 237.105 235.632 239.417ZM255.367 247.933H253.773V223.62H255.367V247.933ZM262.585 230.949V247.933H261.007V230.949H262.585ZM261.82 224.667C262.216 224.667 262.507 224.787 262.695 225.027C262.882 225.256 262.976 225.568 262.976 225.964C262.976 226.36 262.882 226.673 262.695 226.902C262.507 227.131 262.216 227.245 261.82 227.245C261.445 227.245 261.164 227.131 260.976 226.902C260.789 226.673 260.695 226.36 260.695 225.964C260.695 225.568 260.789 225.256 260.976 225.027C261.164 224.787 261.445 224.667 261.82 224.667ZM275.07 248.245C273.382 248.245 271.955 247.897 270.789 247.199C269.632 246.49 268.757 245.485 268.164 244.183C267.58 242.87 267.289 241.318 267.289 239.527C267.289 237.662 267.627 236.068 268.304 234.745C268.981 233.412 269.934 232.391 271.164 231.683C272.393 230.975 273.835 230.62 275.492 230.62C276.304 230.62 277.059 230.693 277.757 230.839C278.455 230.985 279.085 231.188 279.648 231.449L279.226 232.839C278.643 232.579 278.023 232.381 277.367 232.245C276.71 232.11 276.08 232.042 275.476 232.042C274.08 232.042 272.893 232.35 271.914 232.964C270.945 233.568 270.2 234.433 269.679 235.558C269.169 236.673 268.914 237.99 268.914 239.511C268.914 240.938 269.132 242.204 269.57 243.308C270.007 244.402 270.679 245.266 271.585 245.902C272.492 246.527 273.653 246.839 275.07 246.839C275.893 246.839 276.674 246.756 277.414 246.589C278.164 246.423 278.846 246.209 279.46 245.949V247.386C278.908 247.636 278.268 247.839 277.539 247.995C276.82 248.162 275.997 248.245 275.07 248.245ZM289.914 230.62C291.362 230.62 292.565 230.959 293.523 231.636C294.492 232.313 295.21 233.24 295.679 234.417C296.158 235.594 296.398 236.943 296.398 238.464V239.605H284.132C284.132 241.938 284.669 243.73 285.742 244.98C286.825 246.23 288.372 246.855 290.382 246.855C291.434 246.855 292.346 246.772 293.117 246.605C293.898 246.428 294.763 246.131 295.71 245.714V247.167C294.877 247.542 294.044 247.813 293.21 247.98C292.377 248.157 291.419 248.245 290.335 248.245C288.617 248.245 287.174 247.891 286.007 247.183C284.851 246.464 283.976 245.454 283.382 244.152C282.799 242.85 282.507 241.329 282.507 239.589C282.507 237.891 282.789 236.365 283.351 235.011C283.924 233.657 284.757 232.589 285.851 231.808C286.955 231.016 288.309 230.62 289.914 230.62ZM289.898 231.98C288.273 231.98 286.955 232.522 285.945 233.605C284.945 234.678 284.356 236.23 284.179 238.261H294.757C294.757 237.022 294.58 235.928 294.226 234.98C293.872 234.032 293.335 233.298 292.617 232.777C291.908 232.245 291.002 231.98 289.898 231.98ZM308.554 230.62C310.46 230.62 311.924 231.12 312.945 232.12C313.966 233.12 314.476 234.688 314.476 236.824V247.933H312.914V236.917C312.914 235.23 312.528 233.99 311.757 233.199C310.987 232.407 309.867 232.011 308.398 232.011C306.533 232.011 305.106 232.558 304.117 233.652C303.138 234.735 302.648 236.376 302.648 238.574V247.933H301.07V230.949H302.351L302.585 234.042H302.679C302.981 233.407 303.393 232.834 303.914 232.324C304.445 231.803 305.096 231.391 305.867 231.089C306.638 230.777 307.533 230.62 308.554 230.62ZM330.601 243.48C330.601 244.49 330.346 245.355 329.835 246.074C329.335 246.782 328.601 247.324 327.632 247.699C326.664 248.063 325.471 248.245 324.054 248.245C322.877 248.245 321.825 248.141 320.898 247.933C319.971 247.725 319.195 247.469 318.57 247.167V245.605C319.351 245.99 320.216 246.303 321.164 246.542C322.112 246.782 323.085 246.902 324.085 246.902C325.835 246.902 327.096 246.605 327.867 246.011C328.638 245.417 329.023 244.605 329.023 243.574C329.023 242.897 328.83 242.339 328.445 241.902C328.07 241.454 327.528 241.068 326.82 240.745C326.112 240.423 325.257 240.094 324.257 239.761C323.216 239.407 322.289 239.058 321.476 238.714C320.674 238.36 320.044 237.897 319.585 237.324C319.127 236.74 318.898 235.949 318.898 234.949C318.898 233.584 319.445 232.522 320.539 231.761C321.632 231.001 323.101 230.62 324.945 230.62C325.966 230.62 326.914 230.719 327.789 230.917C328.674 231.105 329.476 231.35 330.195 231.652L329.632 232.995C328.987 232.693 328.242 232.449 327.398 232.261C326.554 232.074 325.71 231.98 324.867 231.98C323.481 231.98 322.398 232.225 321.617 232.714C320.835 233.204 320.445 233.923 320.445 234.87C320.445 235.6 320.632 236.173 321.007 236.589C321.382 236.995 321.919 237.339 322.617 237.62C323.315 237.891 324.143 238.193 325.101 238.527C326.091 238.87 327.002 239.23 327.835 239.605C328.679 239.98 329.351 240.464 329.851 241.058C330.351 241.652 330.601 242.459 330.601 243.48ZM200.257 267.62V275.558C200.257 276.016 200.247 276.443 200.226 276.839C200.216 277.235 200.195 277.636 200.164 278.042H200.273C200.554 277.397 200.955 276.818 201.476 276.308C202.007 275.798 202.658 275.391 203.429 275.089C204.21 274.787 205.112 274.636 206.132 274.636C207.424 274.636 208.507 274.86 209.382 275.308C210.268 275.745 210.94 276.417 211.398 277.324C211.856 278.23 212.085 279.397 212.085 280.824V291.933H210.523V280.917C210.523 279.23 210.138 277.99 209.367 277.199C208.596 276.407 207.476 276.011 206.007 276.011C204.757 276.011 203.705 276.256 202.851 276.745C201.997 277.225 201.351 277.954 200.914 278.933C200.476 279.902 200.257 281.115 200.257 282.574V291.933H198.679V267.62H200.257ZM221.289 291.933L214.773 274.949H216.445L220.804 286.527C221.075 287.225 221.315 287.897 221.523 288.542C221.742 289.178 221.924 289.756 222.07 290.277H222.148C222.315 289.756 222.502 289.173 222.71 288.527C222.929 287.881 223.169 287.214 223.429 286.527L227.789 274.949H229.476L222.945 291.933H221.289ZM238.742 274.62C240.19 274.62 241.393 274.959 242.351 275.636C243.32 276.313 244.039 277.24 244.507 278.417C244.987 279.594 245.226 280.943 245.226 282.464V283.605H232.96C232.96 285.938 233.497 287.73 234.57 288.98C235.653 290.23 237.2 290.855 239.21 290.855C240.263 290.855 241.174 290.772 241.945 290.605C242.726 290.428 243.591 290.131 244.539 289.714V291.167C243.705 291.542 242.872 291.813 242.039 291.98C241.205 292.157 240.247 292.245 239.164 292.245C237.445 292.245 236.002 291.891 234.835 291.183C233.679 290.464 232.804 289.454 232.21 288.152C231.627 286.85 231.335 285.329 231.335 283.589C231.335 281.891 231.617 280.365 232.179 279.011C232.752 277.657 233.585 276.589 234.679 275.808C235.783 275.016 237.138 274.62 238.742 274.62ZM238.726 275.98C237.101 275.98 235.783 276.522 234.773 277.605C233.773 278.678 233.184 280.23 233.007 282.261H243.585C243.585 281.022 243.408 279.928 243.054 278.98C242.7 278.032 242.164 277.298 241.445 276.777C240.737 276.245 239.83 275.98 238.726 275.98ZM256.664 274.652C257.112 274.652 257.533 274.678 257.929 274.73C258.325 274.782 258.695 274.855 259.039 274.949L258.789 276.402C258.445 276.308 258.096 276.24 257.742 276.199C257.388 276.147 257.007 276.12 256.601 276.12C255.799 276.12 255.08 276.272 254.445 276.574C253.82 276.876 253.289 277.308 252.851 277.87C252.414 278.433 252.08 279.11 251.851 279.902C251.622 280.693 251.507 281.579 251.507 282.558V291.933H249.914V274.949H251.273L251.429 278.152H251.523C251.783 277.495 252.148 276.907 252.617 276.386C253.096 275.855 253.674 275.433 254.351 275.12C255.028 274.808 255.799 274.652 256.664 274.652ZM266.96 290.886C267.45 290.886 267.903 290.85 268.32 290.777C268.747 290.704 269.122 290.61 269.445 290.495V291.808C269.112 291.923 268.721 292.022 268.273 292.105C267.825 292.199 267.33 292.245 266.789 292.245C265.83 292.245 265.033 292.068 264.398 291.714C263.763 291.35 263.283 290.803 262.96 290.074C262.638 289.334 262.476 288.397 262.476 287.261V276.261H259.945V275.324L262.46 274.839L263.007 270.839H264.054V274.949H269.351V276.261H264.054V287.167C264.054 288.386 264.278 289.313 264.726 289.949C265.184 290.574 265.929 290.886 266.96 290.886ZM289.242 291.933H287.695V274.683C287.695 274.068 287.695 273.532 287.695 273.074C287.695 272.605 287.7 272.188 287.71 271.824C287.721 271.449 287.737 271.094 287.757 270.761C287.476 271.042 287.205 271.287 286.945 271.495C286.684 271.704 286.351 271.969 285.945 272.292L282.57 274.855L281.695 273.73L287.914 269.089H289.242V291.933ZM298.882 282.199C298.882 280.49 299.013 278.933 299.273 277.527C299.544 276.11 299.94 274.86 300.46 273.777C300.981 272.683 301.638 271.761 302.429 271.011C303.221 270.261 304.148 269.693 305.21 269.308C306.273 268.923 307.466 268.73 308.789 268.73C309.362 268.73 309.908 268.761 310.429 268.824C310.95 268.886 311.408 268.975 311.804 269.089V270.527C311.419 270.391 310.971 270.287 310.46 270.214C309.95 270.131 309.403 270.089 308.82 270.089C307.028 270.089 305.523 270.506 304.304 271.339C303.085 272.162 302.153 273.397 301.507 275.042C300.872 276.678 300.518 278.709 300.445 281.136H300.554C300.856 280.574 301.278 280.037 301.82 279.527C302.372 279.016 303.054 278.6 303.867 278.277C304.69 277.954 305.658 277.792 306.773 277.792C308.148 277.792 309.33 278.068 310.32 278.62C311.32 279.173 312.085 279.964 312.617 280.995C313.158 282.027 313.429 283.251 313.429 284.667C313.429 286.188 313.148 287.516 312.585 288.652C312.033 289.787 311.231 290.673 310.179 291.308C309.138 291.933 307.882 292.245 306.414 292.245C305.164 292.245 304.07 291.99 303.132 291.48C302.195 290.969 301.408 290.256 300.773 289.339C300.148 288.423 299.674 287.36 299.351 286.152C299.039 284.933 298.882 283.615 298.882 282.199ZM306.398 290.87C308.117 290.87 309.45 290.334 310.398 289.261C311.356 288.178 311.835 286.647 311.835 284.667C311.835 282.959 311.398 281.61 310.523 280.62C309.648 279.62 308.325 279.12 306.554 279.12C305.325 279.12 304.263 279.365 303.367 279.855C302.481 280.344 301.799 280.954 301.32 281.683C300.841 282.402 300.601 283.11 300.601 283.808C300.601 284.464 300.695 285.193 300.882 285.995C301.07 286.798 301.388 287.574 301.835 288.324C302.283 289.063 302.877 289.673 303.617 290.152C304.367 290.631 305.294 290.87 306.398 290.87ZM317.71 290.824C317.71 290.365 317.815 290.016 318.023 289.777C318.231 289.527 318.539 289.402 318.945 289.402C319.393 289.402 319.721 289.527 319.929 289.777C320.138 290.016 320.242 290.365 320.242 290.824C320.242 291.282 320.138 291.636 319.929 291.886C319.721 292.136 319.393 292.261 318.945 292.261C318.539 292.261 318.231 292.136 318.023 291.886C317.815 291.636 317.71 291.282 317.71 290.824ZM220.32 331.48C220.32 332.49 220.065 333.355 219.554 334.074C219.054 334.782 218.32 335.324 217.351 335.699C216.382 336.063 215.19 336.245 213.773 336.245C212.596 336.245 211.544 336.141 210.617 335.933C209.69 335.725 208.914 335.469 208.289 335.167V333.605C209.07 333.99 209.934 334.303 210.882 334.542C211.83 334.782 212.804 334.902 213.804 334.902C215.554 334.902 216.815 334.605 217.585 334.011C218.356 333.417 218.742 332.605 218.742 331.574C218.742 330.897 218.549 330.339 218.164 329.902C217.789 329.454 217.247 329.068 216.539 328.745C215.83 328.423 214.976 328.094 213.976 327.761C212.934 327.407 212.007 327.058 211.195 326.714C210.393 326.36 209.763 325.897 209.304 325.324C208.846 324.74 208.617 323.949 208.617 322.949C208.617 321.584 209.164 320.522 210.257 319.761C211.351 319.001 212.82 318.62 214.664 318.62C215.684 318.62 216.632 318.719 217.507 318.917C218.393 319.105 219.195 319.35 219.914 319.652L219.351 320.995C218.705 320.693 217.96 320.449 217.117 320.261C216.273 320.074 215.429 319.98 214.585 319.98C213.2 319.98 212.117 320.225 211.335 320.714C210.554 321.204 210.164 321.923 210.164 322.87C210.164 323.6 210.351 324.173 210.726 324.589C211.101 324.995 211.638 325.339 212.335 325.62C213.033 325.891 213.862 326.193 214.82 326.527C215.809 326.87 216.721 327.23 217.554 327.605C218.398 327.98 219.07 328.464 219.57 329.058C220.07 329.652 220.32 330.459 220.32 331.48ZM231.039 318.62C232.487 318.62 233.69 318.959 234.648 319.636C235.617 320.313 236.335 321.24 236.804 322.417C237.283 323.594 237.523 324.943 237.523 326.464V327.605H225.257C225.257 329.938 225.794 331.73 226.867 332.98C227.95 334.23 229.497 334.855 231.507 334.855C232.559 334.855 233.471 334.772 234.242 334.605C235.023 334.428 235.888 334.131 236.835 333.714V335.167C236.002 335.542 235.169 335.813 234.335 335.98C233.502 336.157 232.544 336.245 231.46 336.245C229.742 336.245 228.299 335.891 227.132 335.183C225.976 334.464 225.101 333.454 224.507 332.152C223.924 330.85 223.632 329.329 223.632 327.589C223.632 325.891 223.914 324.365 224.476 323.011C225.049 321.657 225.882 320.589 226.976 319.808C228.08 319.016 229.434 318.62 231.039 318.62ZM231.023 319.98C229.398 319.98 228.08 320.522 227.07 321.605C226.07 322.678 225.481 324.23 225.304 326.261H235.882C235.882 325.022 235.705 323.928 235.351 322.98C234.997 322.032 234.46 321.298 233.742 320.777C233.033 320.245 232.127 319.98 231.023 319.98ZM243.773 311.62V323.886C243.773 324.647 243.763 325.423 243.742 326.214C243.731 326.995 243.716 327.777 243.695 328.558H243.726C244.028 328.204 244.341 327.834 244.664 327.449C244.997 327.053 245.325 326.673 245.648 326.308L252.367 318.949H254.273L247.57 326.23L254.867 335.933H252.976L246.492 327.277L243.773 330.136V335.933H242.195V311.62H243.773ZM270.898 318.949V335.933H269.617L269.382 332.87H269.289C268.997 333.495 268.585 334.063 268.054 334.574C267.523 335.084 266.872 335.49 266.101 335.792C265.33 336.094 264.434 336.245 263.414 336.245C262.112 336.245 261.018 336.022 260.132 335.574C259.257 335.115 258.596 334.428 258.148 333.511C257.7 332.594 257.476 331.449 257.476 330.074V318.949H259.054V329.917C259.054 331.615 259.434 332.865 260.195 333.667C260.966 334.469 262.091 334.87 263.57 334.87C264.82 334.87 265.867 334.631 266.71 334.152C267.565 333.673 268.21 332.949 268.648 331.98C269.096 331.001 269.32 329.782 269.32 328.324V318.949H270.898ZM284.085 318.62C285.992 318.62 287.455 319.12 288.476 320.12C289.497 321.12 290.007 322.688 290.007 324.824V335.933H288.445V324.917C288.445 323.23 288.059 321.99 287.289 321.199C286.518 320.407 285.398 320.011 283.929 320.011C282.065 320.011 280.638 320.558 279.648 321.652C278.669 322.735 278.179 324.376 278.179 326.574V335.933H276.601V318.949H277.882L278.117 322.042H278.21C278.513 321.407 278.924 320.834 279.445 320.324C279.976 319.803 280.627 319.391 281.398 319.089C282.169 318.777 283.065 318.62 284.085 318.62ZM301.664 336.245C299.341 336.245 297.57 335.516 296.351 334.058C295.143 332.589 294.539 330.454 294.539 327.652C294.539 324.714 295.179 322.475 296.46 320.933C297.742 319.391 299.528 318.62 301.82 318.62C302.799 318.62 303.648 318.772 304.367 319.074C305.096 319.376 305.705 319.787 306.195 320.308C306.695 320.818 307.08 321.402 307.351 322.058H307.476C307.434 321.506 307.403 320.912 307.382 320.277C307.362 319.641 307.351 319.058 307.351 318.527V311.62H308.929V335.933H307.648L307.445 332.824H307.351C307.07 333.449 306.679 334.022 306.179 334.542C305.69 335.063 305.075 335.48 304.335 335.792C303.596 336.094 302.705 336.245 301.664 336.245ZM301.835 334.87C303.835 334.87 305.257 334.251 306.101 333.011C306.945 331.761 307.367 329.98 307.367 327.667V327.417C307.367 325.022 306.945 323.188 306.101 321.917C305.257 320.636 303.882 319.995 301.976 319.995C300.091 319.995 298.648 320.652 297.648 321.964C296.658 323.277 296.164 325.183 296.164 327.683C296.164 330.037 296.627 331.824 297.554 333.042C298.492 334.261 299.919 334.87 301.835 334.87Z" fill="white"/>
</svg>
